<?xml version="1.0" standalone="no"?>
<!DOCTYPE svg PUBLIC "-//W3C//DTD SVG 20010904//EN"
 "http://www.w3.org/TR/2001/REC-SVG-20010904/DTD/svg10.dtd">
<svg version="1.0" xmlns="http://www.w3.org/2000/svg"
 width="1536.000000pt" height="1024.000000pt" viewBox="0 0 1536.000000 1024.000000"
 preserveAspectRatio="xMidYMid meet">

<g transform="translate(0.000000,1024.000000) scale(0.100000,-0.100000)"
fill="#000000" stroke="none">
<path d="M0 5120 l0 -5120 7680 0 7680 0 0 5120 0 5120 -7680 0 -7680 0 0
-5120z m8080 4936 c0 -2 -7 -7 -16 -10 -8 -3 -12 -2 -9 4 6 10 25 14 25 6z
m-2285 -794 c-37 -31 -88 -63 -75 -47 8 10 29 26 45 37 31 19 46 24 30 10z
m-95 -27 c-7 -9 -15 -13 -19 -10 -3 3 1 10 9 15 21 14 24 12 10 -5z m120 -50
c0 -2 -10 -9 -22 -15 -22 -11 -22 -10 -4 4 21 17 26 19 26 11z m1815 -49 c-2
-13 -7 -32 -13 -42 -9 -16 -10 -15 -17 5 -4 15 -1 29 11 42 22 24 22 24 19 -5z
m1365 -1 c-7 -8 -18 -15 -24 -15 -6 0 -2 7 8 15 25 19 32 19 16 0z m-40 -28
c0 -2 -15 -16 -32 -33 l-33 -29 29 33 c28 30 36 37 36 29z m-3260 -35 c0 -4
-20 -30 -45 -57 -25 -28 -55 -64 -67 -81 -12 -17 -30 -37 -41 -43 -10 -7 12
24 50 69 37 45 75 90 83 100 17 22 20 23 20 12z m1870 -34 c-13 -17 -23 -38
-23 -45 0 -17 -10 -7 -13 12 -1 8 2 15 7 15 5 0 16 14 24 31 9 17 19 28 23 25
3 -4 -5 -21 -18 -38z m-1930 28 c0 -2 -8 -10 -17 -17 -16 -13 -17 -12 -4 4 13
16 21 21 21 13z m3230 -21 c-7 -8 -9 -15 -4 -15 4 0 -3 -11 -16 -25 -13 -14
-29 -25 -36 -25 -7 0 -16 -9 -19 -20 -7 -21 -27 -28 -22 -8 3 18 48 58 58 53
4 -3 10 -1 14 5 3 5 1 10 -6 10 -7 0 -5 8 6 20 21 23 44 28 25 5z m-3276 -19
c-3 -8 -14 -14 -24 -13 -10 1 -16 5 -14 9 3 5 9 6 14 3 5 -3 11 -1 15 5 9 15
15 12 9 -4z m2010 -31 c-17 -26 -61 -51 -72 -41 -3 3 7 10 21 15 14 5 33 21
44 34 24 33 30 26 7 -8z m-2040 -21 c-9 -13 -20 -22 -24 -19 -11 7 -42 -24
-35 -35 3 -5 1 -11 -4 -14 -5 -4 -12 -2 -16 4 -9 15 52 85 75 87 19 2 19 0 4
-23z m1962 -18 c-1 -11 -9 -22 -16 -24 -9 -3 -10 0 -4 9 6 11 3 10 -11 -1 -14
-11 -17 -12 -11 -1 6 9 4 12 -5 9 -8 -3 -14 -10 -14 -16 0 -6 -10 -19 -22 -27
-27 -19 -31 -8 -5 11 16 12 15 13 -5 11 -18 -1 -23 -7 -23 -29 0 -15 -4 -28
-10 -28 -5 0 -25 -16 -45 -37 -19 -20 -35 -33 -35 -28 0 4 12 19 26 32 35 32
24 41 -19 14 -19 -11 -38 -21 -43 -21 -5 0 7 9 26 21 19 12 52 37 73 57 20 20
37 33 37 29 0 -4 17 4 38 17 45 29 72 30 68 2z m-1994 -28 c-7 -7 -12 -8 -12
-2 0 14 12 26 19 19 2 -3 -1 -11 -7 -17z m3191 -29 c-8 -8 -13 -7 -18 2 -5 8
-4 10 3 5 7 -4 12 -2 12 5 0 7 3 9 7 6 4 -4 2 -12 -4 -18z m-3235 -27 c-10 -2
-18 -10 -18 -17 0 -8 -4 -17 -10 -20 -6 -4 -7 1 -3 12 10 29 25 43 37 36 7 -5
5 -9 -6 -11z m3190 -42 c-29 -27 -60 -49 -68 -50 -8 0 0 9 18 20 19 12 32 28
32 40 0 14 -4 19 -12 14 -7 -4 -8 -3 -4 4 4 6 13 9 20 6 8 -3 17 -1 21 5 3 6
15 11 26 11 16 0 9 -11 -33 -50z m-3159 17 c-2 -1 -13 -9 -24 -17 -19 -14 -19
-14 -6 3 7 9 18 17 24 17 6 0 8 -1 6 -3z m3059 -46 c-9 -15 -58 -28 -58 -15 0
3 51 28 68 33 1 1 -3 -7 -10 -18z m-21 -34 c3 -4 0 -7 -8 -7 -8 0 -58 -22
-111 -49 -54 -26 -100 -46 -104 -42 -4 3 -4 0 0 -7 5 -9 0 -12 -21 -11 -15 2
-39 -1 -53 -4 -16 -4 -13 -1 8 8 18 9 37 13 43 10 5 -4 9 -1 9 4 0 6 5 11 12
11 20 0 103 43 90 48 -14 4 -6 22 9 22 6 0 7 -4 4 -10 -7 -12 -3 -12 20 -4 13
6 14 9 3 16 -10 7 -9 8 4 4 10 -3 24 1 30 8 13 14 52 15 65 3z m-3181 -35
c-17 -16 -18 -16 -5 5 7 12 15 20 18 17 3 -2 -3 -12 -13 -22z m1872 12 c-16
-8 -28 -19 -28 -24 0 -11 -69 -54 -77 -47 -3 4 10 14 30 23 24 12 33 22 29 32
-3 9 -1 13 5 9 6 -4 16 0 23 8 7 8 20 15 29 15 10 -1 6 -6 -11 -16z m962 -8
c0 -2 -7 -7 -16 -10 -8 -3 -12 -2 -9 4 6 10 25 14 25 6z m320 -6 c0 -5 -6 -7
-14 -4 -9 3 -13 -1 -13 -11 2 -12 -14 -22 -53 -34 -55 -17 -103 -40 -86 -41
14 0 -26 -40 -41 -40 -14 0 -18 -16 -5 -23 4 -2 1 -2 -6 0 -7 1 -29 -4 -49
-12 -47 -20 -56 -19 -43 4 7 13 16 17 31 14 14 -4 20 -2 16 4 -4 7 7 13 28 17
24 5 33 11 28 21 -3 8 0 15 7 15 6 0 8 -5 4 -11 -4 -7 -1 -10 7 -7 8 3 15 10
15 16 1 7 2 16 3 21 0 5 26 17 56 26 30 10 62 26 71 36 18 20 44 26 44 9z
m-1360 -15 c-14 -8 -29 -14 -35 -14 -5 0 1 6 15 14 14 8 30 14 35 14 6 0 -1
-6 -15 -14z m-1900 -14 c-5 -11 -15 -23 -22 -27 -7 -5 -8 -2 -3 7 21 37 44 55
25 20z m1843 -38 c-7 -2 -15 -4 -18 -4 -3 1 -14 -8 -25 -19 -11 -11 -26 -20
-32 -20 -7 0 -4 6 7 12 11 6 23 16 27 22 4 7 17 12 30 13 13 0 17 -1 11 -4z
m-1817 -41 c-18 -16 -18 -16 -6 6 6 13 14 21 18 18 3 -4 -2 -14 -12 -24z
m2849 18 c-3 -5 -14 -10 -23 -9 -14 0 -13 2 3 9 27 11 27 11 20 0z m75 -5 c0
-2 -15 -12 -32 -20 l-33 -16 25 20 c24 20 40 26 40 16z m-1150 -25 c-8 -5 -19
-10 -25 -10 -5 0 -3 5 5 10 8 5 20 10 25 10 6 0 3 -5 -5 -10z m-45 -20 c-3 -5
-12 -10 -18 -10 -7 0 -6 4 3 10 19 12 23 12 15 0z m-49 -16 c-15 -15 -20 -29
-17 -47 1 -5 -3 -6 -8 -3 -5 3 -15 -2 -22 -11 -12 -14 -11 -15 9 -9 12 4 34
18 49 32 14 13 31 24 37 24 6 0 0 -7 -12 -16 -13 -9 -28 -27 -33 -41 -7 -19
-15 -24 -29 -20 -11 3 -23 0 -27 -5 -3 -7 -1 -8 5 -4 7 4 12 2 12 -4 0 -7 -7
-9 -15 -6 -9 3 -18 -1 -21 -9 -4 -8 -12 -15 -20 -15 -8 0 -14 -4 -14 -10 0 -5
-10 -18 -22 -30 l-22 -20 33 6 c25 5 32 4 27 -5 -4 -6 -12 -9 -17 -6 -5 4 -15
3 -21 -1 -9 -6 -5 -10 12 -14 19 -5 30 -1 48 19 13 14 21 20 17 14 -3 -7 -2
-13 3 -13 12 0 34 25 27 31 -5 6 58 2 116 -6 24 -4 53 -6 64 -6 19 0 19 -1 2
-11 -10 -5 -27 -8 -37 -5 -10 2 -24 0 -31 -5 -10 -7 -9 -8 6 -4 20 6 20 6 1
-9 -22 -17 -50 -20 -41 -5 3 6 2 10 -3 10 -6 0 -12 -7 -16 -15 -3 -10 1 -15
12 -15 11 0 5 -7 -16 -20 -18 -11 -36 -20 -40 -20 -4 0 -1 4 7 9 22 14 3 31
-34 31 -20 0 -35 -6 -39 -15 -3 -8 -13 -15 -23 -14 -16 0 -15 1 2 8 19 8 18 9
-8 21 -29 14 -56 6 -94 -29 -10 -9 -34 -28 -53 -41 -49 -34 -59 -42 -83 -66
-12 -11 -31 -26 -42 -33 -19 -11 -19 -12 3 -6 13 4 22 2 22 -4 0 -6 -6 -11
-13 -11 -7 0 -22 -13 -34 -28 -11 -15 -36 -39 -56 -52 -19 -13 -43 -37 -52
-52 -17 -30 -6 -39 15 -13 7 9 20 13 28 10 9 -3 12 0 9 9 -6 14 18 56 31 56 4
0 8 -9 8 -19 0 -11 -3 -18 -7 -16 -3 3 -11 -7 -18 -21 -6 -14 -15 -23 -20 -19
-6 3 -18 -3 -28 -14 -10 -10 -34 -26 -53 -35 -30 -15 -32 -15 -15 -1 11 9 20
19 21 23 3 27 30 65 78 114 31 31 56 60 56 66 0 6 12 20 26 31 19 15 22 21 11
21 -9 0 -19 -4 -22 -10 -3 -5 -11 -10 -17 -10 -7 0 -6 6 2 15 7 8 22 15 35 15
12 0 30 9 40 20 19 21 17 22 -30 22 -20 -1 -24 1 -10 5 11 3 27 11 35 18 8 7
20 14 25 16 24 9 125 83 125 91 0 5 -6 6 -12 3 -7 -4 -2 3 12 14 14 11 32 21
41 21 9 0 20 8 24 18 5 14 4 15 -6 5 -7 -7 -17 -13 -22 -13 -10 0 54 60 64 60
3 0 20 20 39 45 19 25 38 45 43 45 4 0 1 -7 -7 -16z m-1698 -19 c-6 -14 -15
-25 -19 -25 -5 0 -3 11 3 25 6 14 15 25 19 25 5 0 3 -11 -3 -25z m1510 -25
c-7 -11 -17 -20 -22 -20 -5 0 -15 -8 -22 -17 -7 -10 -14 -14 -14 -10 0 9 58
67 66 67 2 0 -1 -9 -8 -20z m1182 10 c-8 -5 -19 -10 -25 -10 -5 0 -3 5 5 10 8
5 20 10 25 10 6 0 3 -5 -5 -10z m40 2 c0 -12 -50 -62 -62 -62 -6 0 -5 7 3 18
13 15 12 16 -3 4 -10 -8 -16 -19 -15 -25 1 -7 -4 -11 -10 -9 -7 1 -13 -3 -13
-10 0 -6 -3 -8 -6 -5 -4 4 -1 14 7 23 12 15 12 16 -1 11 -8 -4 -23 -10 -32
-13 -10 -4 -18 -10 -18 -15 0 -5 8 -6 18 -3 14 5 15 4 2 -5 -22 -16 -40 -13
-33 5 5 14 3 14 -15 3 -11 -7 -18 -17 -15 -23 4 -5 -1 -7 -10 -3 -9 3 -19 2
-22 -3 -4 -6 -11 -10 -17 -10 -33 0 124 88 172 96 42 8 60 15 60 25 0 5 2 9 5
9 3 0 5 -3 5 -8z m-2734 -27 c-18 -13 -15 -20 6 -16 4 0 2 -10 -4 -24 -6 -14
-14 -25 -18 -25 -4 0 -11 -16 -14 -35 -4 -19 -12 -37 -18 -41 -7 -4 -8 -3 -4
4 4 7 2 12 -5 12 -8 0 -8 4 -2 13 6 6 16 35 24 64 11 46 20 57 49 62 3 0 -4
-6 -14 -14z m1774 5 c0 -5 -5 -10 -11 -10 -5 0 -7 5 -4 10 3 6 8 10 11 10 2 0
4 -4 4 -10z m1101 -10 c-13 -11 -28 -20 -35 -20 -6 0 3 9 19 20 38 25 47 25
16 0z m-2980 -21 c-13 -12 -21 -29 -18 -39 2 -10 -1 -17 -10 -17 -9 0 -11 7
-7 21 7 25 45 68 52 61 3 -3 -5 -15 -17 -26z m3003 2 c-5 -5 -20 -11 -34 -14
-23 -6 -23 -5 3 5 15 7 27 16 27 22 0 5 3 6 7 3 4 -4 2 -11 -3 -16z m-79 -11
c-3 -5 -14 -10 -23 -10 -15 0 -15 2 -2 10 20 13 33 13 25 0z m210 -20 c-3 -5
-12 -10 -18 -10 -7 0 -6 4 3 10 19 12 23 12 15 0z m-3190 -21 c-4 -6 1 -17 11
-25 18 -14 18 -14 -3 -4 -23 11 -28 21 -16 33 10 11 15 8 8 -4z m2849 -3 c-3
-7 -16 -18 -30 -25 -14 -6 -23 -7 -19 -1 3 5 -9 8 -29 6 -19 -1 -33 1 -30 6 3
4 20 8 37 9 18 0 41 4 52 9 11 5 21 9 22 9 1 1 0 -5 -3 -13z m-817 -22 c-3 -3
-12 -4 -19 -1 -8 3 -5 6 6 6 11 1 17 -2 13 -5z m-1992 -24 c-3 -5 -12 -10 -18
-10 -7 0 -6 4 3 10 19 12 23 12 15 0z m2154 -5 c-8 -9 -31 -17 -50 -18 -19 -1
-37 -6 -40 -10 -3 -4 -16 -4 -29 1 -20 7 -12 11 51 24 41 9 76 16 79 17 2 0
-3 -6 -11 -14z m-2201 -35 c-11 -32 -23 -38 -31 -16 -7 17 21 59 33 51 5 -3 4
-19 -2 -35z m2581 36 c-2 -2 -15 -9 -29 -15 -24 -11 -24 -11 -6 3 16 13 49 24
35 12z m146 -6 c-3 -5 -11 -10 -16 -10 -6 0 -7 5 -4 10 3 6 11 10 16 10 6 0 7
-4 4 -10z m-412 -7 c-13 -2 -33 -2 -45 0 -13 2 -3 4 22 4 25 0 35 -2 23 -4z
m72 -3 c3 -6 -1 -7 -9 -4 -18 7 -21 14 -7 14 6 0 13 -4 16 -10z m45 6 c0 -3
-4 -8 -10 -11 -5 -3 -10 -1 -10 4 0 6 5 11 10 11 6 0 10 -2 10 -4z m31 -9 c-6
-8 -9 -17 -6 -21 3 -3 0 -2 -6 3 -12 10 -4 31 13 31 7 0 7 -4 -1 -13z m126
-23 c-16 -9 -31 -13 -34 -10 -3 3 5 10 18 15 37 15 47 12 16 -5z m-753 -38
c-10 -8 -21 -12 -23 -10 -3 2 4 11 15 18 10 8 21 12 23 10 3 -2 -4 -11 -15
-18z m701 14 c-4 -7 3 -9 22 -5 26 5 26 4 -6 -10 -18 -9 -46 -17 -62 -18 -16
-1 -29 -5 -29 -9 0 -10 -42 -10 -64 -2 -31 12 -16 27 22 21 25 -4 49 0 77 13
49 23 48 22 40 10z m-2599 -23 c-3 -14 1 -32 9 -43 9 -10 30 -41 48 -69 17
-27 43 -62 56 -77 38 -44 63 -88 46 -81 -8 3 -15 12 -15 20 0 10 -7 14 -18 11
-22 -6 -45 9 -55 35 -4 11 -12 15 -19 11 -7 -4 -10 -4 -6 0 3 4 -2 16 -13 27
-11 11 -17 24 -14 30 8 12 -22 62 -33 55 -4 -2 -8 16 -10 42 -2 29 2 48 10 53
19 13 21 11 14 -14z m37 -6 c-6 -3 -13 -13 -16 -21 -4 -11 -6 -9 -6 6 -1 24 8
36 21 27 7 -3 7 -8 1 -12z m2392 -1 c3 -5 1 -10 -4 -10 -6 0 -11 5 -11 10 0 6
2 10 4 10 3 0 8 -4 11 -10z m-595 -10 c0 -5 -5 -10 -11 -10 -5 0 -7 5 -4 10 3
6 8 10 11 10 2 0 4 -4 4 -10z m570 6 c0 -2 -7 -6 -15 -10 -8 -3 -15 -1 -15 4
0 6 7 10 15 10 8 0 15 -2 15 -4z m-600 -15 c0 -5 -7 -12 -16 -15 -24 -9 -28
-7 -14 9 14 17 30 20 30 6z m659 -17 c6 4 11 2 11 -5 0 -7 -9 -9 -22 -5 -13 3
-27 6 -33 6 -5 0 -3 4 5 10 9 6 17 5 21 -2 4 -6 12 -7 18 -4z m-1009 -7 c0 -2
-17 -19 -37 -38 -20 -18 -31 -25 -23 -14 20 26 60 61 60 52z m234 -12 c-6 -14
-35 -35 -49 -35 -5 0 46 49 52 50 1 0 0 -7 -3 -15z m446 -9 c0 -2 -7 -7 -16
-10 -8 -3 -12 -2 -9 4 6 10 25 14 25 6z m136 -11 c-11 -8 -25 -15 -30 -15 -6
1 0 7 14 15 32 19 40 18 16 0z m134 1 c0 -2 -7 -7 -16 -10 -8 -3 -12 -2 -9 4
6 10 25 14 25 6z m-791 -32 c-6 -8 -17 -14 -23 -13 -7 0 -6 2 2 6 6 2 12 11
12 19 0 9 5 12 10 9 8 -5 7 -11 -1 -21z m-114 6 c-4 -6 -34 -24 -68 -42 -48
-24 -58 -26 -44 -11 9 11 14 23 10 28 -5 4 1 6 13 3 11 -3 36 3 55 13 40 22
42 22 34 9z m720 0 c-3 -5 -11 -10 -16 -10 -6 0 -7 5 -4 10 3 6 11 10 16 10 6
0 7 -4 4 -10z m-602 -45 c-15 -19 -32 -35 -38 -34 -5 0 -4 3 3 6 6 2 12 10 12
18 0 10 34 42 48 44 2 1 -10 -15 -25 -34z m-1283 4 c0 -11 -4 -18 -10 -14 -5
3 -7 12 -3 20 7 21 13 19 13 -6z m1050 14 c-1 -5 -12 -21 -26 -38 -15 -16 -23
-24 -19 -16 5 9 3 12 -6 9 -8 -3 -12 -12 -11 -19 2 -8 1 -11 -3 -8 -3 4 -17
-4 -31 -18 -14 -14 -28 -23 -30 -20 -3 3 3 14 15 26 11 11 27 34 36 50 8 17
20 31 26 31 6 0 8 -4 5 -9 -4 -5 3 -7 14 -4 11 3 20 9 20 14 0 5 2 9 5 9 3 0
5 -3 5 -7z m740 -45 c0 -7 -19 -22 -41 -33 -22 -10 -46 -26 -52 -36 -7 -9 -28
-24 -47 -34 -41 -20 -35 -14 42 44 32 24 55 48 51 54 -3 5 -2 7 3 4 6 -3 16
-2 24 4 19 11 20 11 20 -3z m-1770 -13 c0 -12 -19 -12 -23 0 -4 9 -1 12 9 8 7
-3 14 -7 14 -8z m930 11 c0 -2 -7 -9 -15 -16 -13 -11 -14 -10 -9 4 5 14 24 23
24 12z m272 -44 c-11 -17 -18 -20 -21 -11 -2 7 1 15 8 17 6 2 9 7 7 11 -3 4 1
8 9 8 11 0 10 -5 -3 -25z m-452 -36 c0 -2 -8 -10 -17 -17 -16 -13 -17 -12 -4
4 13 16 21 21 21 13z m1570 0 c0 -2 -7 -7 -16 -10 -8 -3 -12 -2 -9 4 6 10 25
14 25 6z m-2467 -56 c18 -16 38 -30 45 -30 7 0 20 -7 28 -15 14 -13 13 -15 -3
-15 -19 0 -121 69 -122 83 -2 16 22 6 52 -23z m993 -33 c-7 -11 -12 -13 -15
-5 -2 7 2 14 9 16 10 4 10 6 0 12 -7 5 -9 13 -5 21 6 9 10 8 15 -7 4 -10 2
-27 -4 -37z m1842 41 c-3 -7 -18 -14 -33 -15 -16 -1 -56 -16 -90 -33 -57 -29
-58 -29 -30 -5 17 14 46 30 65 35 19 6 42 14 50 20 21 14 42 12 38 -2z m45 5
c-7 -2 -19 -2 -25 0 -7 3 -2 5 12 5 14 0 19 -2 13 -5z m-2842 -20 c13 -16 12
-17 -3 -4 -10 7 -18 15 -18 17 0 8 8 3 21 -13z m1674 1 c-11 -8 -30 -23 -42
-34 -24 -21 -63 -43 -63 -36 0 6 111 86 119 86 3 0 -3 -7 -14 -16z m405 -4
c-24 -15 -36 -11 -14 4 10 8 21 12 24 10 2 -3 -2 -9 -10 -14z m-892 -21 c-10
-5 -18 -15 -18 -22 0 -7 -9 -23 -20 -37 -15 -18 -18 -20 -13 -6 4 13 3 17 -5
12 -7 -4 -12 -12 -12 -17 0 -6 -7 -17 -15 -26 -9 -8 -13 -18 -9 -22 4 -3 9 0
11 7 3 6 9 12 14 12 4 0 6 -7 3 -15 -4 -8 -13 -15 -21 -15 -9 0 -12 -6 -8 -18
3 -11 -3 -29 -14 -44 -11 -14 -17 -28 -14 -32 3 -3 2 -6 -4 -6 -6 0 -13 -9
-16 -20 -3 -11 0 -20 5 -20 6 0 4 -8 -4 -17 -21 -25 -41 -79 -35 -95 3 -9 7
-6 12 7 17 50 25 60 19 25 -3 -19 -6 -48 -6 -65 0 -16 -7 -35 -16 -41 -15 -11
-8 -39 8 -29 5 3 8 -9 8 -26 -1 -31 -1 -31 -14 -8 -12 22 -13 20 -14 -27 0
-45 -3 -53 -22 -59 -13 -3 -18 -9 -11 -11 18 -8 53 14 53 34 0 9 7 25 15 35 7
11 11 26 8 35 -4 14 -3 14 5 3 7 -10 7 -23 -2 -40 -7 -15 -11 -45 -8 -69 3
-32 0 -48 -13 -62 -10 -11 -14 -20 -10 -20 4 0 0 -9 -9 -19 -17 -18 -16 -20 3
-26 12 -3 18 -11 15 -17 -4 -7 -9 -6 -14 2 -5 8 -20 -12 -41 -56 -31 -66 -83
-134 -103 -134 -5 0 -2 8 7 18 10 10 17 25 17 33 0 20 53 129 63 129 5 0 5 -5
1 -12 -4 -7 -3 -8 5 -4 6 4 9 12 6 17 -4 5 -1 9 4 9 6 0 11 8 10 18 0 10 -3
12 -6 5 -8 -20 -26 -15 -18 5 5 14 4 15 -6 5 -7 -7 -17 -13 -22 -13 -4 0 -5 6
0 13 12 19 11 81 -1 89 -7 5 -4 8 7 8 10 0 16 4 12 10 -3 5 -12 7 -20 3 -8 -3
-15 0 -15 7 0 6 10 10 22 8 11 -2 23 3 26 11 3 10 -2 11 -19 6 -13 -4 -21 -4
-17 0 4 5 3 14 -3 22 -9 10 -7 13 7 14 11 0 14 3 8 5 -8 3 -9 17 -3 41 4 20 6
40 3 44 -2 4 10 47 27 96 17 48 33 98 36 111 3 12 10 25 16 29 6 3 7 1 3 -5
-4 -7 -2 -12 3 -12 6 0 11 13 11 28 0 16 6 37 14 47 7 10 11 27 8 37 -2 10 1
18 7 18 6 0 23 19 37 42 31 48 62 77 84 77 12 0 11 -2 -2 -10z m1052 7 c0 -7
-72 -47 -77 -42 -3 2 12 14 34 25 42 22 43 23 43 17z m-234 -21 c-11 -8 -22
-12 -25 -9 -6 6 19 24 34 24 6 -1 1 -7 -9 -15z m-1821 -29 c32 -8 105 -72 105
-92 0 -7 6 -15 13 -17 6 -3 1 -6 -12 -6 -17 -1 -22 3 -17 15 3 9 2 12 -5 9
-11 -8 -40 25 -33 37 3 5 -2 8 -10 8 -12 0 -14 -5 -6 -25 6 -16 6 -25 0 -25
-6 0 -10 6 -11 13 0 9 -2 9 -6 -1 -3 -8 -11 -4 -25 13 -11 14 -25 25 -31 25
-8 0 -8 -3 1 -9 11 -6 9 -9 -6 -13 -16 -4 -19 -2 -15 10 4 9 2 13 -4 9 -9 -6
-35 22 -58 63 -6 11 -3 10 12 -3 11 -9 23 -14 28 -10 4 5 5 0 2 -9 -4 -12 -1
-18 7 -18 22 0 25 23 7 45 -16 19 -15 19 9 4 14 -9 39 -19 55 -23z m1925 -16
c-8 -5 -19 -10 -25 -10 -5 0 -3 5 5 10 8 5 20 10 25 10 6 0 3 -5 -5 -10z
m-577 -49 c-34 -28 -47 -54 -15 -30 15 13 16 12 3 -3 -7 -10 -17 -16 -21 -13
-4 2 -15 -4 -25 -15 -10 -11 -22 -17 -26 -14 -5 3 -9 -4 -9 -15 0 -11 -9 -22
-20 -26 -11 -4 -18 -11 -15 -16 4 -5 1 -9 -4 -9 -6 0 -11 -8 -11 -18 0 -9 -14
-34 -31 -55 -17 -20 -27 -37 -24 -37 4 0 15 10 25 23 10 12 21 19 24 16 6 -5
-132 -152 -179 -191 -11 -9 -26 -24 -34 -33 -7 -9 -16 -13 -19 -10 -4 4 2 13
12 21 12 8 14 14 7 14 -8 0 -11 6 -7 15 3 8 1 15 -4 15 -5 0 -6 7 -3 17 4 11
3 14 -6 9 -15 -10 8 35 24 46 17 12 24 -26 7 -39 -21 -17 -4 -57 18 -43 13 8
12 10 -3 10 -10 0 -16 4 -12 10 3 5 13 6 22 3 11 -4 14 -3 9 5 -5 8 -2 10 8 6
9 -3 16 -1 16 5 0 6 8 11 18 11 16 1 16 1 -1 11 -9 5 -22 7 -27 4 -6 -3 -10
-4 -10 -1 0 3 13 12 30 21 16 8 29 19 27 23 -1 5 13 23 31 41 18 19 31 38 29
45 -3 6 5 21 16 34 14 15 16 22 7 22 -7 0 -10 3 -6 8 4 4 12 7 18 7 6 0 17 10
25 22 23 34 -10 24 -53 -18 -20 -19 -35 -29 -33 -22 5 14 128 143 137 143 3 0
1 -5 -6 -12 -7 -7 -12 -17 -12 -22 0 -6 13 4 29 22 27 29 60 45 46 22 -10 -16
21 -12 35 5 7 8 15 15 19 15 3 -1 -9 -13 -26 -29z m-1201 -16 c15 -14 30 -25
33 -25 24 1 38 -2 28 -7 -9 -3 -7 -15 7 -44 12 -23 16 -39 9 -39 -7 0 -8 -12
-5 -32 5 -26 4 -28 -3 -12 -5 12 -22 31 -37 43 -25 20 -25 21 -5 21 11 0 21
-4 21 -10 0 -5 5 -10 11 -10 25 0 -14 30 -40 31 -14 0 -19 3 -11 6 8 2 21 7
29 9 11 4 12 7 2 17 -9 9 -14 9 -22 -3 -9 -13 -10 -12 -6 2 4 10 -6 28 -25 47
-38 37 -25 42 14 6z m553 15 c3 -5 1 -10 -4 -10 -6 0 -11 5 -11 10 0 6 2 10 4
10 3 0 8 -4 11 -10z m672 -22 c-3 -8 -6 -5 -6 6 -1 11 2 17 5 13 3 -3 4 -12 1
-19z m926 4 c-4 -10 -8 -11 -13 -2 -5 8 -9 7 -13 -4 -3 -8 -16 -20 -29 -26
l-23 -11 24 20 c21 19 21 21 5 22 -18 0 -17 1 1 9 30 12 54 8 48 -8z m-104 -6
c-2 -2 -15 -7 -29 -10 l-25 -7 25 15 c21 12 42 14 29 2z m1228 8 c-3 -3 -12
-4 -19 -1 -8 3 -5 6 6 6 11 1 17 -2 13 -5z m-1700 -24 c-14 -11 -29 -20 -34
-20 -10 1 39 39 51 40 5 0 -3 -9 -17 -20z m1648 10 c-3 -5 -16 -10 -28 -9 -21
0 -21 1 -2 9 28 12 37 12 30 0z m122 -6 c-3 -3 -12 -4 -19 -1 -8 3 -5 6 6 6
11 1 17 -2 13 -5z m-3247 -14 c0 -5 -2 -10 -4 -10 -3 0 -8 5 -11 10 -3 6 -1
10 4 10 6 0 11 -4 11 -10z m1589 6 c-2 -2 -36 -20 -75 -40 -57 -29 -77 -34
-107 -29 -23 3 -37 2 -37 -5 0 -5 10 -8 23 -5 18 4 17 2 -8 -15 -21 -13 -35
-17 -47 -10 -10 5 -18 11 -18 14 0 12 113 55 122 46 10 -10 23 -5 93 31 27 14
65 23 54 13z m261 -10 c-38 -13 -54 -11 -30 4 8 6 26 10 40 9 22 0 20 -2 -10
-13z m-1811 -16 c25 0 47 -29 55 -71 4 -21 13 -42 21 -49 17 -14 21 -35 4 -25
-5 4 -3 -10 7 -32 9 -21 22 -55 28 -75 10 -32 14 -36 27 -25 8 6 5 3 -6 -8
-14 -13 -20 -32 -19 -53 1 -23 -2 -32 -11 -28 -7 2 -19 -1 -26 -7 -7 -7 -5 -1
6 12 14 16 16 25 8 28 -8 3 -9 12 -3 29 6 15 6 24 -1 24 -6 0 -5 9 2 23 7 12
12 22 12 22 -7 0 -70 135 -65 139 3 4 -1 4 -9 1 -9 -3 -22 2 -30 11 -12 16
-12 17 4 11 10 -4 16 -3 12 2 -3 5 -1 12 5 16 18 11 11 23 -20 34 -19 6 -30
17 -29 28 0 10 3 13 6 6 2 -7 13 -13 22 -13z m1391 16 c0 -2 -7 -7 -16 -10 -8
-3 -12 -2 -9 4 6 10 25 14 25 6z m480 0 c0 -2 -37 -23 -82 -45 -64 -32 -89
-40 -114 -35 -26 5 -34 2 -44 -16 -6 -12 -10 -24 -8 -26 3 -2 29 0 59 5 46 8
114 8 114 1 0 -1 16 -4 35 -7 19 -2 37 -7 39 -9 9 -9 -10 -17 -39 -16 -16 0
-30 -3 -30 -6 0 -4 -12 -9 -26 -10 -14 -1 -58 -13 -98 -27 -40 -14 -81 -25
-91 -25 -17 0 -17 1 0 20 14 16 21 17 32 8 10 -8 17 -8 24 -1 8 8 5 13 -10 18
-22 7 -61 -10 -74 -31 -4 -8 -14 -14 -22 -14 -8 0 -17 -4 -20 -10 -4 -6 4 -6
21 0 20 8 29 8 35 -1 4 -7 17 -9 35 -5 19 5 25 4 19 -2 -5 -6 -25 -13 -44 -17
-27 -6 -32 -4 -26 6 5 8 -2 5 -16 -6 -13 -11 -26 -21 -29 -23 -2 -2 8 -1 23 2
16 3 25 1 22 -5 -4 -5 -15 -9 -27 -9 -12 0 -22 -8 -25 -21 -4 -14 -8 -17 -13
-8 -6 9 -16 6 -41 -12 -18 -12 -29 -18 -25 -11 4 7 2 12 -4 12 -6 0 -8 5 -4
12 4 6 -4 3 -18 -8 -14 -10 -24 -22 -22 -25 2 -4 -10 -12 -26 -19 -17 -7 -30
-16 -30 -21 0 -4 -10 -11 -22 -14 -13 -4 -34 -17 -47 -29 -13 -11 -21 -15 -17
-8 12 21 -8 13 -22 -8 -7 -12 -17 -18 -23 -15 -10 7 -96 -22 -113 -37 -15 -12
-28 -10 -21 5 4 6 0 4 -8 -5 -15 -18 -33 -25 -23 -9 4 5 -5 4 -18 -2 -14 -7
-24 -14 -23 -17 1 -3 -1 -5 -4 -5 -3 0 -13 -8 -23 -17 -10 -10 -22 -18 -27
-18 -14 0 50 68 96 103 31 23 35 28 15 22 -24 -7 -71 -42 -78 -57 -2 -5 -10
-8 -18 -8 -21 0 31 47 77 71 20 10 39 25 43 34 3 8 17 20 31 25 16 6 23 14 19
22 -4 6 -3 8 3 5 5 -3 22 3 39 14 16 10 35 19 43 19 8 0 29 11 47 25 34 26 60
33 48 14 -3 -6 -20 -17 -38 -25 l-31 -13 45 0 c29 0 54 6 69 18 14 10 32 17
40 14 13 -4 13 -3 2 5 -11 8 -9 11 8 17 11 3 21 13 21 21 0 8 6 14 13 13 23
-3 52 12 70 37 20 26 8 33 -17 9 -8 -8 -19 -15 -24 -15 -5 0 -31 -9 -57 -21
-31 -14 -43 -24 -35 -29 9 -5 9 -9 1 -14 -6 -4 -11 -3 -11 3 0 5 -14 8 -31 6
-17 -2 -28 -1 -24 3 4 4 10 7 13 7 4 0 33 13 65 28 32 16 64 30 71 31 7 1 28
18 47 39 19 20 39 37 46 37 6 0 33 9 60 21 60 26 83 31 83 18 0 -15 106 21
120 41 4 5 35 19 68 29 1 1 2 -1 2 -3z m-2025 -16 c3 -5 1 -10 -4 -10 -6 0
-11 5 -11 10 0 6 2 10 4 10 3 0 8 -4 11 -10z m3210 1 c3 -5 1 -12 -5 -16 -5
-3 -10 1 -10 9 0 18 6 21 15 7z m-3060 -41 c12 -19 -12 -10 -31 11 -19 22 -19
22 3 10 12 -6 25 -16 28 -21z m3032 15 c0 -8 -6 -15 -14 -15 -7 0 -13 -5 -13
-11 0 -5 -5 -7 -11 -4 -7 5 -4 14 7 26 21 23 31 24 31 4z m-1802 -5 c-3 -5
-13 -10 -21 -10 -8 0 -12 5 -9 10 3 6 13 10 21 10 8 0 12 -4 9 -10z m510 0
c-3 -5 -16 -10 -28 -9 -20 1 -20 2 3 9 14 4 26 8 28 9 2 1 0 -3 -3 -9z m478 3
c-7 -2 -19 -2 -25 0 -7 3 -2 5 12 5 14 0 19 -2 13 -5z m-948 -33 c-3 -5 -15
-10 -26 -10 -11 0 -17 5 -14 10 3 6 15 10 26 10 11 0 17 -4 14 -10z m881 -4
c11 -8 36 -16 55 -18 19 -2 33 -8 32 -14 -3 -18 120 -56 222 -68 25 -2 24 -3
-8 -5 -21 0 -59 4 -84 10 -32 9 -47 9 -52 1 -4 -7 -12 -8 -21 -2 -13 9 -13 10
0 10 12 1 11 3 -2 11 -16 9 -48 14 -117 18 -18 1 -22 4 -14 12 8 8 17 8 31 0
25 -13 35 -14 28 -2 -4 5 0 11 6 14 7 2 0 4 -17 4 -16 0 -37 3 -46 7 -10 4
-23 1 -33 -10 -14 -13 -22 -14 -39 -6 -27 13 -86 14 -66 1 11 -7 11 -9 -1 -8
-8 0 -26 7 -40 15 -14 8 -17 13 -8 10 10 -3 20 -1 24 5 3 6 16 9 27 8 12 -1
29 1 37 4 54 20 61 20 86 3z m377 7 c-7 -2 -19 -2 -25 0 -7 3 -2 5 12 5 14 0
19 -2 13 -5z m-1398 -13 c-3 -5 -12 -10 -18 -10 -7 0 -6 4 3 10 19 12 23 12
15 0z m1876 0 c10 6 19 8 19 5 0 -3 -16 -12 -34 -20 -21 -9 -48 -34 -67 -61
-18 -26 -27 -44 -21 -40 7 4 12 1 12 -8 0 -19 -20 -32 -21 -14 0 7 -5 1 -11
-14 -5 -16 -16 -28 -24 -28 -8 0 -14 -3 -14 -7 0 -5 -12 -9 -26 -9 -31 -2 -43
-12 -25 -23 20 -12 -2 -23 -54 -26 -31 -2 -51 -10 -69 -28 -17 -17 -32 -24
-46 -20 -12 3 -18 9 -13 12 4 3 21 17 38 31 16 14 23 17 16 8 -20 -27 1 -21
28 7 23 25 23 25 2 25 -12 0 -43 11 -69 25 -33 17 -40 25 -26 25 12 0 27 -7
34 -15 9 -11 22 -14 43 -9 20 4 27 3 23 -5 -5 -7 7 -11 35 -11 32 0 49 7 76
30 18 17 38 30 43 30 6 0 10 11 10 24 0 15 11 33 28 46 15 12 27 26 27 31 0
14 59 50 63 39 2 -6 10 -6 23 0z m-2171 -16 c0 -2 -7 -4 -15 -4 -8 0 -15 4
-15 10 0 5 7 7 15 4 8 -4 15 -8 15 -10z m458 4 c17 -17 15 -26 -10 -34 -13 -4
-47 -32 -76 -63 -39 -41 -50 -49 -41 -28 7 15 16 27 20 27 10 0 20 30 13 41
-3 5 -10 6 -16 3 -7 -4 -6 -9 2 -14 9 -5 9 -9 1 -14 -6 -4 -11 -2 -11 5 0 8
-4 8 -15 -1 -12 -10 -15 -10 -14 1 1 20 79 85 79 66 0 -8 -7 -18 -16 -21 -8
-3 -12 -10 -9 -16 9 -15 25 -12 25 5 0 8 5 15 12 15 6 0 8 3 5 7 -4 3 1 12 11
19 21 17 25 17 40 2z m-1036 -30 c-8 -8 -9 -4 -5 13 4 13 8 18 11 10 2 -7 -1
-18 -6 -23z m1639 10 c0 -10 2 -10 6 0 6 15 39 15 77 -1 26 -11 27 -14 12 -26
-10 -9 -16 -10 -16 -2 0 6 -18 11 -45 11 -25 0 -45 4 -45 9 0 5 -8 12 -17 14
-14 4 -12 5 5 6 12 0 22 -5 23 -11z m169 -18 c-8 -6 -22 -10 -30 -9 -9 0 -5 6
10 14 27 14 44 10 20 -5z m3210 0 c8 -5 11 -10 5 -10 -5 0 -17 5 -25 10 -8 5
-10 10 -5 10 6 0 17 -5 25 -10z m-4520 -31 c-7 -11 -14 -18 -17 -15 -3 3 0 12
7 21 18 21 23 19 10 -6z m93 0 c-4 -15 -8 -17 -14 -8 -8 14 -3 29 11 29 4 0 6
-9 3 -21z m3409 -1 c-6 -7 -23 -21 -39 -30 -27 -16 -29 -16 -29 2 0 12 4 16
11 10 6 -5 20 -1 35 10 29 23 37 25 22 8z m-4047 -18 c-3 -5 -12 -10 -18 -10
-7 0 -6 4 3 10 19 12 23 12 15 0z m3941 -5 c-11 -8 -31 -15 -45 -14 -21 0 -19
3 14 14 52 17 53 17 31 0z m-2992 -23 c-21 -33 -5 -51 27 -28 13 9 30 16 39
15 10 0 9 -3 -5 -9 -12 -5 -14 -9 -6 -9 14 -1 7 -16 -7 -16 -4 -1 -21 -8 -38
-18 -17 -9 -35 -13 -39 -9 -3 4 -5 2 -3 -3 5 -16 -31 -49 -85 -79 -26 -14 -51
-26 -55 -26 -9 0 65 50 75 50 4 0 17 13 28 28 l19 26 -34 -24 c-29 -20 -32
-21 -20 -5 18 24 53 51 62 48 3 -1 12 4 18 12 10 12 10 15 1 15 -8 0 -10 8 -6
19 5 18 3 18 -20 8 -14 -7 -27 -19 -30 -28 -6 -19 -83 -75 -91 -66 -3 3 4 11
16 17 12 6 19 14 16 17 -3 3 -28 -13 -56 -37 -27 -23 -50 -39 -50 -35 0 4 -7
2 -15 -5 -8 -7 -13 -16 -10 -20 3 -5 -3 -6 -14 -3 -10 3 -22 -1 -27 -8 -5 -9
-2 -11 9 -6 10 3 17 2 17 -3 0 -6 -2 -10 -4 -10 -2 0 -12 -3 -22 -7 -12 -4
-15 -3 -10 5 4 7 1 12 -8 12 -8 0 -18 -4 -21 -10 -3 -5 -11 -10 -17 -10 -7 0
-6 6 2 15 7 8 18 15 25 15 14 0 127 78 137 96 4 6 19 19 34 29 15 9 24 13 20
7 -3 -5 2 -13 12 -17 12 -4 22 1 32 17 28 43 61 67 91 66 29 -1 29 -1 13 -26z
m116 24 c0 -2 -8 -10 -17 -17 -16 -13 -17 -12 -4 4 13 16 21 21 21 13z m-538
-28 c-9 -9 -15 -9 -24 1 -11 10 -10 11 5 6 10 -5 17 -2 17 6 0 7 3 9 7 6 4 -4
1 -13 -5 -19z m1208 11 c0 -4 -17 -7 -37 -6 -21 0 -49 -2 -63 -6 -20 -5 -19
-4 5 8 30 14 95 17 95 4z m457 5 c-3 -3 -12 -4 -19 -1 -8 3 -5 6 6 6 11 1 17
-2 13 -5z m91 -9 c13 -11 -19 -10 -48 1 l-35 13 40 -6 c22 -3 41 -7 43 -8z
m2903 -12 c13 -16 12 -17 -3 -4 -10 7 -18 15 -18 17 0 8 8 3 21 -13z m-3724 1
c-3 -3 -12 -4 -19 -1 -8 3 -5 6 6 6 11 1 17 -2 13 -5z m873 -15 l25 -20 -32
16 c-18 8 -33 18 -33 20 0 10 16 4 40 -16z m-2399 -16 c-12 -20 -14 -14 -5 12
4 9 9 14 11 11 3 -2 0 -13 -6 -23z m903 12 c-6 -16 -24 -21 -24 -7 0 11 11 22
21 22 5 0 6 -7 3 -15z m873 9 c-3 -3 -12 -4 -19 -1 -8 3 -5 6 6 6 11 1 17 -2
13 -5z m-251 -19 c-11 -8 -25 -15 -30 -15 -6 1 0 7 14 15 32 19 40 18 16 0z
m111 9 c-3 -3 -12 -4 -19 -1 -8 3 -5 6 6 6 11 1 17 -2 13 -5z m304 -9 c16 -9
27 -20 24 -25 -4 -6 1 -10 10 -10 9 0 27 -12 41 -27 19 -20 35 -27 65 -28 34
0 37 -2 22 -12 -9 -7 -27 -11 -41 -8 -19 3 -23 1 -18 -13 5 -13 2 -12 -9 3
-42 54 -57 67 -76 62 -10 -3 -19 0 -20 6 0 8 -2 8 -6 0 -6 -15 -83 -18 -83 -3
0 6 15 10 33 10 44 0 59 11 44 31 -7 9 -19 18 -27 22 -10 4 -11 6 -2 6 7 1 26
-6 43 -14z m-1419 -11 c-12 -8 -22 -20 -22 -26 0 -6 7 -5 18 3 15 13 16 12 3
-3 -7 -10 -19 -18 -26 -18 -8 0 -11 -8 -8 -20 3 -11 1 -20 -4 -20 -21 0 5 75
31 92 22 15 30 8 8 -8z m1391 -3 c4 -4 -14 -8 -40 -7 -26 1 -64 -3 -83 -7 -30
-7 -32 -6 -15 5 11 7 29 14 39 15 11 2 22 6 24 8 7 7 65 -4 75 -14z m117 -23
c0 -12 -6 -9 -26 13 -19 22 -19 22 4 8 12 -8 22 -17 22 -21z m-280 8 c0 -2 -7
-7 -16 -10 -8 -3 -12 -2 -9 4 6 10 25 14 25 6z m-115 -31 c-40 -33 -67 -33
-29 0 16 14 36 25 44 25 9 -1 4 -10 -15 -25z m190 15 c3 -6 -1 -7 -9 -4 -18 7
-21 14 -7 14 6 0 13 -4 16 -10z m260 -30 c3 -5 1 -10 -4 -10 -6 0 -11 5 -11
10 0 6 2 10 4 10 3 0 8 -4 11 -10z m-1250 -10 c-3 -5 -16 -15 -28 -21 -19 -9
-19 -8 3 10 28 23 34 26 25 11z m505 0 c0 -9 -56 -44 -72 -45 -3 0 -10 -3 -14
-7 -17 -18 -26 -6 -9 12 10 11 26 20 35 20 9 0 25 7 36 15 23 17 24 18 24 5z
m-826 -44 c-37 -46 -45 -37 -9 9 15 20 29 34 32 31 3 -2 -8 -20 -23 -40z
m1006 21 c-38 -26 -82 -45 -65 -29 14 14 78 50 90 51 5 1 -6 -9 -25 -22z m665
-36 c-3 -3 -18 8 -33 23 l-27 29 32 -23 c18 -13 30 -26 28 -29z m89 43 c9 -3
14 -9 12 -13 -3 -4 3 -7 12 -8 9 0 33 -3 52 -7 l35 -6 -35 14 -35 15 45 -5
c25 -4 63 -11 85 -17 37 -10 38 -11 13 -15 -15 -2 -37 2 -50 9 -21 11 -22 11
-9 -5 8 -9 11 -19 7 -23 -3 -3 -6 -2 -6 3 0 5 -26 9 -57 10 -45 0 -59 4 -67
19 -6 11 -15 23 -21 27 -12 9 -2 10 19 2z m-2254 -8 c0 -2 -8 -10 -17 -17 -16
-13 -17 -12 -4 4 13 16 21 21 21 13z m1554 -10 c-11 -8 -29 -16 -39 -18 -11
-1 -23 -7 -27 -13 -5 -6 -8 -6 -8 2 0 14 47 40 75 42 19 1 19 1 -1 -13z
m-1284 0 c0 -2 -8 -10 -17 -17 -16 -13 -17 -12 -4 4 13 16 21 21 21 13z m-410
-19 c0 -2 -10 -12 -22 -23 l-23 -19 19 23 c18 21 26 27 26 19z m105 -17 c-3
-5 -8 -20 -10 -31 -3 -12 -7 -24 -11 -28 -4 -3 -4 2 -1 12 7 19 -3 23 -21 5
-8 -8 -8 -17 -1 -32 9 -19 9 -19 -4 -4 -8 10 -18 14 -22 10 -4 -4 -2 4 5 18
13 25 49 59 63 60 5 0 5 -4 2 -10z m1219 1 c3 -5 -3 -11 -15 -14 -16 -4 -18
-3 -8 9 13 16 16 17 23 5z m852 -19 c-17 -16 -18 -16 -5 5 7 12 15 20 18 17 3
-2 -3 -12 -13 -22z m49 10 c-3 -3 -11 0 -18 7 -9 10 -8 11 6 5 10 -3 15 -9 12
-12z m35 -17 c0 -11 -9 -14 -34 -12 -19 1 -32 6 -29 10 3 5 16 7 29 4 13 -2
24 0 24 4 0 5 2 9 5 9 3 0 5 -7 5 -15z m-1526 -3 c2 -4 -4 -8 -14 -8 -10 0
-16 4 -14 8 3 4 9 8 14 8 5 0 11 -4 14 -8z m1340 -13 c5 -4 14 -5 20 -3 7 3
23 0 37 -6 21 -9 19 -10 -16 -6 -22 2 -56 10 -75 19 -34 16 -34 16 -5 10 17
-3 34 -9 39 -14z m236 5 c-15 -17 -30 -18 -30 -1 0 7 9 13 21 14 17 2 18 -1 9
-13z m-1722 -14 c-7 -10 -14 -17 -17 -15 -4 4 18 35 25 35 2 0 -1 -9 -8 -20z
m1750 -17 c-24 -26 -33 -24 -24 4 3 10 15 19 26 19 19 0 19 -1 -2 -23z m-1667
3 c5 3 9 3 9 1 0 -2 -18 -16 -40 -31 -22 -14 -40 -32 -40 -38 0 -6 10 -2 23
10 24 23 53 30 42 11 -9 -13 -56 -33 -73 -30 -8 1 -25 -5 -39 -14 -19 -13 -24
-13 -21 -3 2 7 19 20 36 28 17 8 44 30 59 48 15 19 29 29 31 23 2 -6 8 -9 13
-5z m-420 -19 c-10 -9 -11 -8 -5 6 3 10 9 15 12 12 3 -3 0 -11 -7 -18z m2124
13 c-3 -5 -11 -10 -16 -10 -6 0 -7 5 -4 10 3 6 11 10 16 10 6 0 7 -4 4 -10z
m-2495 -15 c-7 -8 -17 -15 -23 -15 -6 0 -2 7 9 15 25 19 30 19 14 0z m1296 0
c-11 -8 -27 -15 -35 -15 -10 0 -7 6 9 14 33 19 50 19 26 1z m769 -25 c0 -13
-7 -25 -15 -27 -13 -4 -13 -3 0 6 21 15 -9 24 -60 18 -28 -3 -40 -1 -37 7 2 6
15 10 29 8 16 -2 28 3 31 12 10 24 52 4 52 -24z m1255 30 c18 -12 2 -12 -25 0
-13 6 -15 9 -5 9 8 0 22 -4 30 -9z m49 -21 c-10 -6 -7 -10 11 -18 17 -6 19
-10 8 -10 -9 -1 -20 4 -23 10 -4 6 -14 8 -23 4 -13 -5 -12 -2 3 13 11 11 24
17 29 14 4 -2 2 -8 -5 -13z m-3199 -3 c0 -3 -4 -8 -10 -11 -5 -3 -10 -1 -10 4
0 6 5 11 10 11 6 0 10 -2 10 -4z m50 0 c0 -2 -7 -9 -15 -16 -13 -11 -14 -10
-9 4 5 14 24 23 24 12z m976 -5 c-3 -4 -19 -14 -35 -21 -19 -7 -28 -17 -24
-26 8 -22 -15 -16 -28 7 -8 16 -8 24 1 33 8 8 10 7 5 -6 -6 -16 -3 -15 32 2
42 21 57 25 49 11z m171 3 c-3 -3 -12 -4 -19 -1 -8 3 -5 6 6 6 11 1 17 -2 13
-5z m811 -21 c20 -15 32 -20 27 -12 -4 8 11 -5 34 -28 23 -24 49 -43 57 -43
19 0 18 -15 -3 -31 -11 -10 -14 -10 -9 -1 5 8 0 12 -18 12 -14 0 -31 9 -38 19
-16 23 -85 53 -113 49 -31 -4 -49 11 -34 28 6 8 8 15 3 15 -5 1 5 5 21 9 17 4
32 8 34 9 2 0 20 -11 39 -26z m1142 17 c0 -5 -2 -10 -4 -10 -3 0 -8 5 -11 10
-3 6 -1 10 4 10 6 0 11 -4 11 -10z m-2296 -15 c3 -8 1 -15 -4 -15 -6 0 -10 7
-10 15 0 8 2 15 4 15 2 0 6 -7 10 -15z m301 5 c-3 -5 -12 -10 -18 -10 -7 0 -6
4 3 10 19 12 23 12 15 0z m465 -3 c14 0 32 2 40 6 18 8 48 -9 36 -20 -5 -4
-11 -2 -13 5 -3 6 -9 12 -14 12 -6 0 -8 -4 -5 -9 8 -12 -47 -22 -58 -11 -5 5
-17 5 -29 -1 -14 -8 -18 -8 -13 0 5 7 -5 11 -29 11 -24 0 -34 4 -29 11 4 7 21
9 48 4 22 -4 52 -8 66 -8z m1350 3 c0 -4 -35 -11 -77 -15 -43 -5 -86 -9 -95
-10 -10 -1 -18 2 -18 6 0 7 15 11 90 22 41 7 100 4 100 -3z m-2225 -19 c-3 -6
-11 -11 -17 -11 -6 0 -6 6 2 15 14 17 26 13 15 -4z m80 9 c3 -5 1 -10 -4 -10
-6 0 -11 5 -11 10 0 6 2 10 4 10 3 0 8 -4 11 -10z m593 -4 c-7 -8 -15 -12 -17
-11 -5 6 10 25 20 25 5 0 4 -6 -3 -14z m57 4 c-12 -5 -14 -9 -6 -9 8 -1 12 -4
8 -7 -9 -9 -28 6 -22 17 4 5 14 9 23 8 14 0 13 -2 -3 -9z m265 6 c0 -2 -7 -6
-15 -10 -8 -3 -15 -1 -15 4 0 6 7 10 15 10 8 0 15 -2 15 -4z m120 -7 c0 -5 -7
-9 -16 -9 -9 0 -12 -5 -8 -12 5 -9 3 -9 -9 1 -9 7 -15 16 -13 20 7 10 46 11
46 0z m1218 -5 c119 -53 124 -54 98 -25 -17 19 -17 19 3 14 19 -5 26 -15 22
-36 -1 -4 15 -15 34 -23 19 -8 35 -16 35 -19 0 -7 -60 16 -66 26 -3 5 -18 9
-34 9 -16 0 -35 6 -42 13 -7 8 -19 12 -26 9 -6 -2 -12 1 -12 7 0 5 -12 11 -27
13 -14 2 -28 9 -31 16 -5 16 3 15 46 -4z m-1978 -4 c0 -5 -5 -10 -11 -10 -5 0
-7 5 -4 10 3 6 8 10 11 10 2 0 4 -4 4 -10z m287 4 c-3 -3 -12 -4 -19 -1 -8 3
-5 6 6 6 11 1 17 -2 13 -5z m1613 -4 c0 -5 -2 -10 -4 -10 -3 0 -8 5 -11 10 -3
6 -1 10 4 10 6 0 11 -4 11 -10z m-2340 -10 c0 -5 -5 -10 -11 -10 -5 0 -7 5 -4
10 3 6 8 10 11 10 2 0 4 -4 4 -10z m650 -10 c0 -13 -7 -20 -18 -20 -10 0 -24
-6 -32 -12 -12 -11 -12 -10 -1 5 7 9 21 17 30 18 10 0 12 2 3 6 -6 2 -10 9 -6
14 10 16 24 10 24 -11z m1455 10 c-3 -5 -11 -10 -16 -10 -6 0 -7 5 -4 10 3 6
11 10 16 10 6 0 7 -4 4 -10z m-1970 -16 c-9 -9 -18 -14 -21 -11 -9 9 6 27 22
27 13 0 13 -2 -1 -16z m135 6 c0 -5 -5 -10 -11 -10 -5 0 -7 5 -4 10 3 6 8 10
11 10 2 0 4 -4 4 -10z m2100 0 c0 -5 -2 -10 -4 -10 -3 0 -8 5 -11 10 -3 6 -1
10 4 10 6 0 11 -4 11 -10z m-1139 -27 c19 -22 19 -24 3 -10 -12 10 -25 17 -30
16 -5 -1 -18 -1 -29 1 l-20 1 20 9 c29 13 29 12 56 -17z m1394 9 c-3 -3 -11 0
-18 7 -9 10 -8 11 6 5 10 -3 15 -9 12 -12z m-2394 -5 c-6 -8 -7 -18 -3 -22 4
-5 1 -5 -5 -1 -8 4 -35 -14 -70 -48 -32 -30 -81 -70 -110 -89 -48 -32 -51 -33
-41 -11 6 13 18 24 25 24 8 0 12 4 9 9 -3 5 2 15 12 22 15 13 16 12 3 -3 -16
-21 -11 -22 23 -7 14 7 28 18 31 27 5 13 3 13 -11 1 -15 -12 -17 -12 -12 1 2
8 11 15 20 15 8 0 39 22 69 47 51 45 85 64 60 35z m2397 -23 c22 -13 35 -15
40 -8 5 8 17 7 41 -3 18 -8 31 -16 28 -19 -3 -3 -14 -1 -24 4 -12 7 -25 7 -36
1 -19 -11 -60 -2 -52 11 3 4 -9 13 -26 19 -19 6 -28 15 -24 22 5 6 10 7 14 2
3 -5 21 -18 39 -29z m-3328 -9 c-7 -9 -15 -13 -19 -10 -3 3 1 10 9 15 21 14
24 12 10 -5z m210 11 c0 -3 -4 -8 -10 -11 -5 -3 -10 -1 -10 4 0 6 5 11 10 11
6 0 10 -2 10 -4z m590 -1 c0 -2 -10 -9 -22 -15 -22 -11 -22 -10 -4 4 21 17 26
19 26 11z m440 0 c0 -2 -10 -10 -22 -16 -21 -11 -22 -11 -9 4 13 16 31 23 31
12z m359 -6 c17 -6 31 -18 31 -26 0 -9 8 -22 18 -29 16 -13 16 -13 0 -14 -10
0 -18 4 -18 9 0 5 -12 14 -27 20 -21 8 -22 10 -5 7 12 -2 22 0 22 5 0 5 -9 9
-19 9 -11 0 -21 4 -23 9 -1 4 -27 5 -55 1 -53 -6 -77 5 -25 13 51 8 69 7 101
-4z m-260 -15 c2 -2 -10 -4 -27 -4 -17 0 -37 -7 -46 -15 -8 -8 -17 -15 -20
-15 -8 0 -8 35 0 43 6 6 85 -1 93 -9z m1906 6 c3 -5 2 -10 -4 -10 -5 0 -13 5
-16 10 -3 6 -2 10 4 10 5 0 13 -4 16 -10z m-2545 -5 c0 -2 -9 -9 -20 -15 -16
-9 -18 -8 -14 5 5 13 34 22 34 10z m1043 -69 c15 -3 27 -11 27 -17 0 -6 -7 -6
-21 1 -11 6 -34 12 -50 12 -17 1 -28 6 -26 12 2 6 -5 25 -16 41 -19 29 -18 28
19 -6 21 -20 51 -39 67 -43z m115 49 c-3 -3 -9 2 -12 12 -6 14 -5 15 5 6 7 -7
10 -15 7 -18z m755 18 c-7 -2 -21 -2 -30 0 -10 3 -4 5 12 5 17 0 24 -2 18 -5z
m-2442 -26 c-10 -9 -11 -8 -5 6 3 10 9 15 12 12 3 -3 0 -11 -7 -18z m1354 13
c4 -6 -6 -10 -22 -10 -22 0 -25 2 -13 10 19 12 27 12 35 0z m185 -9 c0 -5 8
-12 18 -14 14 -4 14 -5 1 -6 -9 0 -22 6 -29 14 -9 10 -9 15 -1 15 6 0 11 -4
11 -9z m600 5 c0 -11 -19 -15 -25 -6 -3 5 1 10 9 10 9 0 16 -2 16 -4z m1160
-6 c0 -5 -2 -10 -4 -10 -3 0 -8 5 -11 10 -3 6 -1 10 4 10 6 0 11 -4 11 -10z
m-2240 -10 c0 -5 -5 -10 -11 -10 -5 0 -7 5 -4 10 3 6 8 10 11 10 2 0 4 -4 4
-10z m1380 6 c0 -2 -9 -6 -20 -9 -11 -3 -18 -1 -14 4 5 9 34 13 34 5z m838
-15 c17 -7 32 -17 32 -22 0 -12 -17 -11 -25 1 -3 6 -15 10 -26 10 -13 0 -18 4
-13 12 5 7 2 9 -8 6 -8 -4 -21 -2 -29 3 -20 12 28 5 69 -10z m-1616 -63 c10
-16 17 -28 14 -28 -8 0 -86 85 -86 94 0 12 46 -31 72 -66z m-1994 42 c-7 -11
-17 -20 -22 -20 -5 0 -1 9 9 20 10 11 20 20 22 20 2 0 -2 -9 -9 -20z m356 11
c3 -5 -3 -11 -15 -14 -16 -4 -18 -3 -8 9 13 16 16 17 23 5z m2716 0 c0 -4 -11
-6 -25 -3 -14 2 -25 6 -25 8 0 2 11 4 25 4 14 0 25 -4 25 -9z m-2180 -11 c-8
-5 -22 -9 -30 -9 -10 0 -8 3 5 9 27 12 43 12 25 0z m470 0 c0 -5 -5 -10 -11
-10 -5 0 -7 5 -4 10 3 6 8 10 11 10 2 0 4 -4 4 -10z m1753 3 c-7 -2 -19 -2
-25 0 -7 3 -2 5 12 5 14 0 19 -2 13 -5z m-2822 -26 c-6 -8 -7 -18 -3 -22 4 -5
1 -5 -6 -1 -15 9 -44 -12 -36 -26 3 -5 -2 -16 -12 -23 -28 -21 -40 -18 -19 5
28 31 4 24 -33 -9 -17 -17 -44 -37 -59 -47 -16 -9 -44 -36 -63 -61 -51 -64
-99 -119 -100 -112 0 3 14 21 30 39 17 19 29 38 28 44 -3 13 89 106 96 98 3
-3 6 4 6 16 0 12 5 22 11 22 5 0 7 4 4 10 -3 5 0 8 7 5 7 -3 42 12 78 34 69
42 89 49 71 28z m499 -2 c-7 -9 -15 -13 -17 -11 -7 7 7 26 19 26 6 0 6 -6 -2
-15z m534 6 c3 -5 -1 -14 -8 -20 -12 -10 -13 -8 -9 8 6 23 9 25 17 12z m587
-22 c16 -11 29 -26 29 -32 0 -14 30 -43 77 -75 37 -26 40 -27 40 -7 0 8 -4 12
-8 10 -9 -6 -106 81 -99 89 3 3 25 -13 48 -34 23 -22 48 -40 56 -40 7 0 16
-10 19 -22 2 -13 8 -32 13 -43 7 -19 7 -19 -10 -2 -9 9 -24 17 -32 17 -8 0
-14 4 -14 8 0 5 -18 17 -40 27 -22 10 -40 22 -40 27 0 4 -3 7 -7 6 -5 -2 -9 1
-10 6 -1 5 -14 17 -30 28 -25 18 -25 19 -5 15 12 -3 22 -1 22 4 0 5 -8 9 -19
9 -10 0 -24 7 -31 15 -19 23 6 19 41 -6z m2096 -12 c7 0 10 -4 7 -8 -2 -4 -18
-3 -34 3 -35 12 -41 23 -7 12 12 -4 27 -7 34 -7z m-4072 -21 c-16 -23 -57 -56
-71 -56 -6 0 77 79 84 80 1 0 -5 -11 -13 -24z m2335 14 c0 -6 18 -18 40 -27
54 -24 51 -36 -4 -16 -25 9 -43 20 -40 25 3 4 0 8 -5 8 -6 0 -11 5 -11 10 0 6
5 10 10 10 6 0 10 -5 10 -10z m90 0 c8 -5 11 -10 5 -10 -5 0 -17 5 -25 10 -8
5 -10 10 -5 10 6 0 17 -5 25 -10z m-1165 -10 c-3 -5 -11 -10 -16 -10 -6 0 -7
5 -4 10 3 6 11 10 16 10 6 0 7 -4 4 -10z m-1085 -31 c0 -10 -3 -19 -8 -19 -10
0 -32 37 -25 43 10 11 33 -6 33 -24z m3165 13 c-3 -3 -11 0 -18 7 -9 10 -8 11
6 5 10 -3 15 -9 12 -12z m-2561 -4 c-5 -8 -1 -9 12 -4 14 5 16 4 7 -5 -13 -13
-37 -3 -28 12 4 5 8 9 11 9 3 0 2 -5 -2 -12z m446 3 c0 -5 -7 -12 -16 -15 -14
-5 -15 -4 -4 9 14 17 20 19 20 6z m170 5 c0 -3 -4 -8 -10 -11 -5 -3 -10 -1
-10 4 0 6 5 11 10 11 6 0 10 -2 10 -4z m2786 -12 c18 -14 18 -14 -6 -3 -31 14
-36 19 -24 19 6 0 19 -7 30 -16z m-4086 3 c0 -2 -10 -12 -22 -23 l-23 -19 19
23 c18 21 26 27 26 19z m569 -28 c-13 -26 -90 -103 -102 -104 -4 0 -18 -13
-31 -29 -23 -29 -59 -45 -50 -23 6 17 -16 46 -23 30 -2 -7 -10 -13 -16 -13 -6
0 -3 8 6 18 17 16 19 16 36 -6 16 -21 18 -22 31 -7 11 14 10 17 -8 21 -13 4
-19 11 -15 20 3 8 8 12 11 9 3 -2 10 5 16 18 13 25 36 29 52 8 8 -10 13 -11
18 -2 4 6 0 14 -8 17 -21 8 -21 34 0 34 8 0 13 4 10 9 -3 5 5 11 19 13 13 3
22 2 20 -3 -3 -4 -1 -10 4 -14 6 -3 15 4 21 16 7 11 14 18 17 16 2 -3 -1 -16
-8 -28z m-523 12 c-4 -5 0 -11 6 -14 9 -3 4 -14 -14 -33 -23 -23 -28 -25 -28
-11 0 11 4 15 12 11 7 -4 8 -3 4 5 -11 18 -36 -6 -29 -27 4 -13 3 -14 -5 -4
-7 10 -15 6 -36 -18 -14 -17 -32 -30 -38 -28 -12 4 109 128 125 128 5 0 6 -4
3 -9z m416 -14 c-7 -8 -9 -17 -5 -20 3 -4 -1 -7 -11 -7 -11 0 -15 5 -10 13 14
24 27 37 32 32 3 -2 0 -11 -6 -18z m1080 5 c5 -5 -4 -7 -19 -5 -42 6 -103 -23
-103 -48 0 -15 -4 -19 -16 -15 -9 4 -22 2 -29 -4 -9 -8 -15 -8 -20 0 -4 6 8
17 28 25 19 8 37 21 41 30 3 9 10 13 16 10 5 -3 10 -1 10 4 0 12 -23 15 -33 5
-10 -10 -117 -52 -151 -60 -55 -12 -12 21 52 40 31 10 66 21 77 26 23 10 135
4 147 -8z m2193 8 c3 -6 -1 -7 -9 -4 -18 7 -21 14 -7 14 6 0 13 -4 16 -10z
m-2465 -4 c0 -3 -4 -8 -10 -11 -5 -3 -10 -1 -10 4 0 6 5 11 10 11 6 0 10 -2
10 -4z m870 -6 c13 -8 13 -10 -2 -10 -9 0 -20 5 -23 10 -8 13 5 13 25 0z
m2022 -7 c-6 -3 -10 -9 -6 -14 6 -11 -7 -12 -31 -2 -14 5 -12 8 11 18 16 7 31
10 34 7 3 -3 -1 -7 -8 -9z m84 -1 c-10 -2 -22 0 -28 6 -6 6 0 7 19 4 21 -5 23
-7 9 -10z m-4475 -16 c-6 -7 -9 -21 -5 -30 5 -12 2 -15 -10 -10 -9 3 -16 1
-16 -5 0 -6 -5 -11 -10 -11 -12 0 8 39 30 57 20 17 25 16 11 -1z m74 -21 c-11
-9 -28 -25 -37 -36 -14 -16 -18 -17 -18 -6 0 8 15 24 33 36 37 24 52 28 22 6z
m775 11 c0 -3 -15 -14 -32 -26 l-33 -22 30 26 c31 27 35 29 35 22z m980 -6 c0
-5 -2 -10 -4 -10 -3 0 -8 5 -11 10 -3 6 -1 10 4 10 6 0 11 -4 11 -10z m-145
-10 c-4 -7 2 -9 19 -4 27 6 96 -12 96 -26 0 -5 -6 -11 -12 -13 -8 -4 -7 -6 3
-6 9 -1 43 -17 75 -36 32 -19 64 -35 71 -35 7 0 13 -5 13 -11 0 -5 -4 -7 -10
-4 -5 3 -10 -1 -10 -9 0 -16 -14 -11 -70 26 -39 25 -67 31 -67 14 0 -9 4 -13
9 -10 18 11 36 -5 31 -25 -6 -25 -23 -28 -23 -5 0 12 -7 15 -27 10 -16 -3 -22
-3 -15 0 19 9 4 24 -23 24 -18 0 -23 4 -19 15 4 10 0 15 -11 15 -20 0 -15 22
6 28 11 3 11 2 -1 -7 -13 -9 -13 -11 3 -11 10 0 17 8 17 20 0 13 -7 20 -20 20
-11 0 -20 -4 -20 -10 0 -5 -10 -10 -22 -10 -19 0 -20 2 -8 10 9 6 11 13 5 18
-16 12 -16 32 1 32 8 0 12 -5 9 -10z m745 0 c0 -5 3 -9 8 -9 20 3 42 -2 42
-10 0 -12 -39 -2 -65 16 -17 11 -17 13 -2 13 9 0 17 -4 17 -10z m995 0 c3 -5
2 -10 -4 -10 -5 0 -13 5 -16 10 -3 6 -2 10 4 10 5 0 13 -4 16 -10z m125 -4 c0
-3 -4 -8 -10 -11 -5 -3 -10 -1 -10 4 0 6 5 11 10 11 6 0 10 -2 10 -4z m-2062
-21 c7 -6 -34 -45 -47 -45 -11 0 -10 4 5 15 10 8 14 15 7 15 -6 0 -15 -6 -20
-12 -8 -13 -9 -18 -12 -39 0 -5 -5 -7 -11 -4 -5 3 -10 2 -10 -2 0 -5 -18 -19
-39 -33 -22 -13 -38 -26 -37 -29 2 -4 -4 -14 -14 -24 -15 -16 -18 -16 -23 -2
-4 9 3 21 18 31 29 19 24 39 -6 24 -10 -6 -19 -7 -19 -3 0 4 -5 2 -12 -5 -15
-15 -31 -16 -22 0 4 7 3 8 -5 4 -9 -6 -9 -11 1 -24 7 -9 8 -13 2 -9 -7 4 -17
0 -24 -8 -6 -7 -18 -11 -26 -8 -8 3 -14 0 -14 -6 0 -6 -9 -11 -19 -11 -11 0
-23 -5 -26 -10 -7 -12 -25 -4 -25 11 0 6 5 7 12 3 6 -4 8 -3 5 3 -10 17 18 63
50 82 33 20 103 34 103 20 0 -5 -8 -9 -18 -9 -10 0 -27 -7 -39 -15 -12 -8 -28
-13 -36 -10 -7 3 -20 -2 -27 -12 -12 -15 -12 -16 0 -5 19 16 30 15 30 -3 0 -8
-9 -15 -19 -15 -11 0 -23 -4 -26 -10 -9 -15 26 -12 55 5 14 8 21 14 16 15 -22
0 27 38 50 38 14 0 31 5 37 12 9 10 9 11 0 6 -7 -4 -13 -4 -13 -1 0 3 13 11
30 16 16 6 28 15 25 19 -3 5 0 12 6 16 8 4 9 3 5 -4 -4 -7 -3 -12 1 -12 5 0
14 9 21 21 10 16 19 19 38 15 17 -5 23 -3 19 4 -5 7 2 9 22 4 15 -4 29 -8 31
-9z m438 5 c44 -17 19 -23 -28 -6 -27 9 -35 15 -21 16 12 0 34 -5 49 -10z m64
-5 c7 -8 16 -12 21 -9 5 3 6 -2 3 -10 -3 -8 4 -23 15 -33 27 -22 27 -37 1 -23
-11 6 -23 22 -26 36 -3 13 -16 31 -27 39 -12 8 -16 15 -10 15 6 0 16 -7 23
-15z m265 -4 c9 -16 -9 -20 -23 -5 -10 12 -10 14 2 14 8 0 17 -4 21 -9z m695
-1 c0 -5 -2 -10 -4 -10 -3 0 -8 5 -11 10 -3 6 -1 10 4 10 6 0 11 -4 11 -10z
m87 -32 c3 -44 -10 -42 -21 3 -5 24 0 39 13 39 3 0 7 -19 8 -42z m1276 35 c-7
-2 -21 -2 -30 0 -10 3 -4 5 12 5 17 0 24 -2 18 -5z m-1213 -13 c0 -5 -2 -10
-4 -10 -3 0 -8 5 -11 10 -3 6 -1 10 4 10 6 0 11 -4 11 -10z m-3136 -20 c-10
-4 -21 -6 -24 -3 -8 7 24 22 34 16 5 -4 1 -10 -10 -13z m1566 10 c0 -5 -10
-10 -22 -9 -22 0 -22 1 -3 9 11 5 21 9 23 9 1 1 2 -3 2 -9z m390 0 c13 -8 13
-10 -2 -10 -9 0 -20 5 -23 10 -8 13 5 13 25 0z m-605 -10 c-3 -5 -12 -10 -18
-10 -7 0 -6 4 3 10 19 12 23 12 15 0z m281 -1 c3 -6 1 -16 -5 -22 -9 -9 -10
-8 -5 7 6 16 4 17 -17 11 -18 -5 -21 -4 -9 4 19 14 27 14 36 0z m389 -1 c5 4
5 1 1 -5 -10 -18 -46 -16 -46 2 0 12 4 13 19 6 10 -6 22 -7 26 -3z m385 -8 c6
-11 8 -20 6 -20 -3 0 -10 9 -16 20 -6 11 -8 20 -6 20 3 0 10 -9 16 -20z m1900
16 c0 -2 -7 -7 -16 -10 -8 -3 -12 -2 -9 4 6 10 25 14 25 6z m-2646 -22 c3 -8
2 -12 -4 -9 -6 3 -10 10 -10 16 0 14 7 11 14 -7z m634 4 c10 -79 26 -156 35
-167 9 -12 9 -13 -1 -7 -23 14 -42 65 -47 126 -2 33 -1 60 4 60 4 0 8 -6 9
-12z m303 -8 c13 0 18 4 13 12 -4 7 -3 8 4 4 23 -14 12 -26 -23 -26 -34 0 -43
8 -28 24 4 4 9 2 11 -3 2 -6 13 -11 23 -11z m1597 8 c-2 -6 -10 -13 -16 -14
-7 -1 -8 0 -2 3 5 2 8 9 4 14 -3 5 0 9 6 9 7 0 10 -5 8 -12z m-4023 -15 c-2
-10 -11 -38 -20 -63 -9 -25 -17 -51 -17 -57 -1 -7 -5 -13 -9 -13 -4 0 -10 -12
-12 -27 -4 -24 -4 -24 -2 2 3 35 9 60 24 98 6 15 15 38 21 52 11 29 21 33 15
8z m2845 13 c0 -3 -4 -8 -10 -11 -5 -3 -10 -1 -10 4 0 6 5 11 10 11 6 0 10 -2
10 -4z m19 -41 c-2 -25 -7 -51 -12 -57 -5 -8 -7 1 -3 25 2 20 0 37 -5 37 -5 0
-4 9 3 20 7 11 14 20 16 20 2 0 2 -20 1 -45z m956 35 c19 -8 19 -9 -2 -9 -12
-1 -25 4 -28 9 -7 12 2 12 30 0z m-3995 -30 c-6 -10 -15 -22 -21 -26 -8 -4 -8
0 0 15 7 11 9 21 6 21 -4 0 -3 5 0 10 12 19 26 0 15 -20z m208 0 c-7 -10 -14
-17 -17 -15 -4 4 18 35 25 35 2 0 -1 -9 -8 -20z m48 -27 c-43 -43 -152 -234
-124 -217 7 5 9 2 6 -7 -17 -45 -18 -57 -3 -69 8 -7 15 -17 15 -22 0 -5 -11 3
-25 18 -14 15 -25 23 -25 17 0 -5 5 -14 11 -20 8 -8 8 -16 0 -30 -10 -17 -10
-17 -12 2 -6 51 -4 85 4 85 4 0 5 5 2 10 -4 6 1 23 11 38 10 15 19 29 19 32 3
17 50 100 57 100 4 0 5 7 1 15 -3 9 -2 15 3 13 5 -2 28 16 52 40 23 23 45 42
48 42 3 0 -15 -21 -40 -47z m2414 37 c8 -5 12 -11 10 -14 -3 -2 -14 2 -24 10
-22 15 -10 19 14 4z m1390 -2 c0 -4 -4 -8 -9 -8 -6 0 -12 4 -15 8 -3 5 1 9 9
9 8 0 15 -4 15 -9z m-4100 -8 c0 -5 -5 -10 -11 -10 -5 0 -7 5 -4 10 3 6 8 10
11 10 2 0 4 -4 4 -10z m683 -12 c4 -13 0 -29 -9 -39 -8 -9 -19 -30 -23 -45 -4
-16 -16 -33 -28 -38 -13 -6 -25 -27 -33 -58 -8 -27 -19 -48 -27 -48 -8 0 -13
-6 -12 -12 4 -34 -2 -78 -11 -78 -15 0 -5 88 13 108 8 9 18 31 21 47 10 41 66
136 76 130 5 -3 12 0 16 6 4 7 3 9 -4 5 -5 -3 -12 -1 -14 5 -2 6 -17 -7 -32
-30 -16 -23 -31 -39 -34 -36 -5 5 8 23 57 78 30 33 37 34 44 5z m192 12 c-8
-12 -81 -60 -92 -60 -7 0 87 68 95 69 2 1 0 -4 -3 -9z m715 3 c-8 -2 -25 -9
-38 -16 -17 -8 -25 -8 -35 2 -9 10 -8 11 6 6 10 -4 17 -2 17 4 0 6 15 11 33
10 17 0 25 -3 17 -6z m40 -3 c0 -5 -5 -10 -11 -10 -5 0 -7 5 -4 10 3 6 8 10
11 10 2 0 4 -4 4 -10z m45 -8 c-3 -3 -11 0 -18 7 -9 10 -8 11 6 5 10 -3 15 -9
12 -12z m449 -15 c15 -19 26 -43 26 -55 0 -11 5 -24 10 -27 6 -3 10 -13 10
-22 0 -14 -3 -14 -20 2 -11 10 -20 31 -20 46 0 15 -12 41 -26 58 -14 17 -21
31 -15 31 5 0 21 -15 35 -33z m1006 8 c0 -8 -2 -15 -4 -15 -2 0 -6 7 -10 15
-3 8 -1 15 4 15 6 0 10 -7 10 -15z m-2610 -5 c0 -5 -7 -10 -16 -10 -8 0 -12 5
-9 10 3 6 10 10 16 10 5 0 9 -4 9 -10z m195 -16 c-19 -19 -24 -18 -18 5 3 12
11 17 19 14 11 -4 11 -7 -1 -19z m923 5 c13 0 13 -2 -3 -8 -11 -5 -22 -5 -25
-2 -3 4 -21 1 -40 -6 l-35 -12 35 -1 35 -2 -33 -8 c-55 -13 -50 -23 8 -18 45
4 50 3 30 -5 -35 -15 -36 -16 -14 -32 16 -13 16 -14 1 -9 -9 3 -24 1 -33 -6
-12 -11 -17 -11 -27 0 -7 7 -7 10 -2 8 6 -3 15 0 22 7 10 10 9 14 -2 19 -7 2
-16 0 -19 -7 -5 -9 -7 -9 -12 1 -3 6 -14 12 -25 12 -28 0 -23 17 9 29 26 11
26 11 -8 6 -33 -4 -34 -4 -16 10 11 8 34 15 50 15 17 0 38 5 46 10 8 5 21 8
28 5 8 -3 21 -5 30 -6z m329 -11 c32 -14 129 -94 101 -83 -11 4 -18 2 -18 -4
0 -6 5 -11 10 -11 6 0 10 -8 9 -17 0 -11 -3 -13 -6 -5 -8 21 -23 13 -23 -13 0
-14 -4 -25 -8 -25 -11 0 -12 32 -1 46 9 11 -36 74 -52 74 -4 0 3 -12 17 -27
14 -15 21 -29 16 -31 -6 -2 -8 -13 -5 -25 2 -13 -5 -6 -17 16 -12 22 -24 37
-27 34 -2 -3 3 -16 11 -29 9 -14 13 -28 10 -31 -8 -8 -34 38 -34 59 0 7 -10
22 -22 33 -17 17 -19 23 -8 36 15 18 11 18 47 3z m1450 -8 c-1 -11 -5 -20 -9
-20 -4 0 -8 9 -8 20 0 11 4 20 9 20 6 0 9 -9 8 -20z m-4092 0 c3 -6 -1 -7 -9
-4 -18 7 -21 14 -7 14 6 0 13 -4 16 -10z m1175 -5 c0 -8 -4 -15 -10 -15 -5 0
-7 7 -4 15 4 8 8 15 10 15 2 0 4 -7 4 -15z m2637 9 c-3 -3 -12 -4 -19 -1 -8 3
-5 6 6 6 11 1 17 -2 13 -5z m-1087 -25 c0 -5 -4 -9 -10 -9 -5 0 -10 7 -10 16
0 8 5 12 10 9 6 -3 10 -10 10 -16z m1237 -14 c-16 -17 -17 -14 -10 14 4 15 8
19 13 10 5 -6 3 -18 -3 -24z m-2124 8 c-13 -8 -23 -20 -23 -25 0 -6 8 -4 18 3
15 13 16 12 4 -3 -8 -10 -20 -14 -29 -11 -13 5 -11 10 11 30 15 13 30 23 34
22 4 0 -3 -7 -15 -16z m1384 -49 c-7 -8 -29 15 -48 51 -7 12 2 7 22 -12 18
-18 30 -36 26 -39z m-1077 35 c0 -5 -4 -9 -10 -9 -5 0 -10 7 -10 16 0 8 5 12
10 9 6 -3 10 -10 10 -16z m195 11 c-3 -5 -12 -10 -18 -10 -7 0 -6 4 3 10 19
12 23 12 15 0z m-1613 -42 c-6 -6 -7 0 -4 19 5 21 7 23 10 9 2 -10 0 -22 -6
-28z m948 28 c0 -2 -7 -7 -16 -10 -8 -3 -12 -2 -9 4 6 10 25 14 25 6z m70 -6
c-19 -13 -30 -13 -30 0 0 6 10 10 23 10 18 0 19 -2 7 -10z m660 -24 c-8 -8
-14 -7 -21 4 -8 11 -12 12 -16 3 -2 -7 -11 -13 -19 -13 -24 0 -16 16 14 26 32
12 60 -2 42 -20z m59 -28 c9 -25 8 -28 -3 -19 -7 6 -16 8 -20 4 -4 -4 -4 0 -1
9 4 9 -2 29 -11 45 l-18 28 21 -18 c12 -11 26 -33 32 -49z m995 47 c-4 -8 -11
-15 -16 -15 -6 0 -5 6 2 15 7 8 14 15 16 15 2 0 1 -7 -2 -15z m741 5 c-3 -5
-12 -10 -18 -10 -7 0 -6 4 3 10 19 12 23 12 15 0z m-2839 -27 c-10 -10 -19 5
-10 18 6 11 8 11 12 0 2 -7 1 -15 -2 -18z m704 20 c0 -1 -9 -7 -20 -13 -16 -8
-20 -8 -20 4 0 9 8 14 20 13 11 -1 20 -2 20 -4z m-140 -23 c0 -5 -7 -7 -15 -4
-8 4 -12 10 -9 15 6 11 24 2 24 -11z m1190 -21 c44 -39 44 -40 9 -19 -38 21
-79 60 -63 60 5 -1 29 -19 54 -41z m943 26 c-3 -9 -8 -14 -10 -11 -3 3 -2 9 2
15 9 16 15 13 8 -4z m-1733 -9 c0 -8 -7 -16 -15 -20 -8 -3 -15 -1 -15 4 0 6 5
10 11 10 5 0 7 5 4 10 -3 6 -1 10 4 10 6 0 11 -6 11 -14z m180 -39 c0 -5 -7
-2 -15 7 -8 8 -15 23 -15 33 1 14 4 13 15 -7 8 -14 14 -29 15 -33z m1256 41
c4 -7 3 -8 -4 -4 -7 4 -17 4 -23 0 -8 -5 -8 -9 1 -14 9 -5 9 -9 1 -14 -6 -4
-14 0 -18 9 -9 26 29 46 43 23z m28 -3 c-4 -8 -1 -15 5 -15 6 0 11 5 11 10 0
6 5 10 10 10 10 0 -20 -49 -30 -50 -3 0 -6 14 -7 30 -1 17 2 30 7 30 5 0 7 -7
4 -15z m117 -18 l-24 -22 19 27 c10 14 21 24 23 22 3 -3 -6 -15 -18 -27z m979
-60 c18 -15 31 -30 28 -32 -5 -5 -91 74 -108 100 -7 11 0 6 17 -10 16 -17 45
-43 63 -58z m-4170 43 c0 -16 -2 -30 -4 -30 -2 0 -6 14 -8 30 -3 17 -1 30 4
30 4 0 8 -13 8 -30z m1320 20 c0 -5 -4 -10 -10 -10 -5 0 -10 5 -10 10 0 6 5
10 10 10 6 0 10 -4 10 -10z m765 -4 c29 -15 45 -33 45 -51 0 -5 -8 0 -18 12
-9 12 -30 29 -47 37 -16 9 -25 16 -19 16 7 0 24 -6 39 -14z m-1588 -18 c-3 -8
-6 -5 -6 6 -1 11 2 17 5 13 3 -3 4 -12 1 -19z m125 -10 c-8 -8 -9 -4 -5 13 4
13 8 18 11 10 2 -7 -1 -18 -6 -23z m558 22 c0 -5 -2 -10 -4 -10 -3 0 -8 5 -11
10 -3 6 -1 10 4 10 6 0 11 -4 11 -10z m295 0 c-3 -5 -11 -10 -16 -10 -6 0 -7
5 -4 10 3 6 11 10 16 10 6 0 7 -4 4 -10z m355 -33 c0 -20 -24 1 -27 23 -3 24
-3 24 11 5 9 -11 16 -24 16 -28z m722 -78 c-7 -11 -8 -20 -2 -24 6 -3 10 -14
10 -23 0 -11 -6 -6 -15 12 -17 33 -19 50 -5 41 6 -3 10 3 10 14 0 12 -5 21
-11 21 -5 0 -7 -4 -4 -10 11 -17 -7 -11 -21 8 -19 25 -17 41 3 17 l15 -20 -5
20 c-3 11 -9 31 -12 45 -4 14 5 1 20 -29 23 -43 26 -57 17 -72z m484 58 c-16
-11 -23 -24 -20 -35 5 -13 4 -14 -4 -3 -5 7 -16 10 -23 6 -8 -3 1 8 19 25 19
17 32 33 29 36 -2 2 -10 -2 -17 -11 -7 -8 -17 -15 -24 -15 -6 0 3 12 19 28 29
26 30 26 38 7 6 -15 2 -24 -17 -38z m-1409 40 c4 -6 0 -8 -11 -4 -10 4 -15 3
-11 -3 3 -6 13 -10 21 -10 8 0 13 -3 12 -7 -4 -11 39 -53 46 -46 3 3 -3 13
-13 22 -22 19 -37 61 -22 61 6 0 11 -8 11 -17 0 -15 2 -16 10 -3 8 13 10 12
10 -4 0 -16 2 -16 16 -5 13 10 20 10 44 -4 21 -13 29 -14 33 -5 3 10 10 8 26
-6 28 -25 28 -50 0 -41 -16 5 -20 3 -16 -6 2 -8 9 -13 15 -12 6 2 9 -4 6 -12
-8 -21 -21 -19 -29 5 -3 11 -9 20 -13 21 -4 0 -18 3 -32 5 -20 4 -22 2 -12 -8
7 -7 17 -14 23 -14 5 -1 14 -2 21 -3 6 0 9 -4 5 -7 -3 -3 6 -17 21 -30 15 -13
22 -24 15 -24 -6 0 -15 5 -18 10 -3 6 -11 10 -16 10 -6 0 -7 -4 -4 -10 3 -5 1
-10 -5 -10 -7 0 -9 -8 -5 -22 6 -17 4 -20 -10 -14 -15 6 -16 4 -5 -9 8 -10 22
-14 36 -11 13 4 27 0 35 -10 9 -11 25 -14 63 -10 30 3 45 2 37 -3 -11 -7 -11
-13 0 -32 7 -13 13 -36 14 -51 2 -29 15 -52 15 -27 0 11 2 11 10 -1 22 -35 9
-41 -34 -15 -39 23 -44 24 -50 9 -4 -11 -2 -15 8 -11 10 4 13 1 9 -9 -3 -10 0
-12 10 -8 8 3 18 0 22 -6 3 -6 3 -10 -2 -9 -28 5 -36 -2 -17 -16 18 -14 17
-15 -8 -4 -15 7 -26 17 -25 23 1 6 -4 10 -11 8 -6 -1 -11 2 -10 7 3 10 -70 81
-83 81 -5 0 -13 9 -18 19 -10 17 -9 18 14 7 13 -6 28 -20 33 -31 5 -11 23 -28
40 -37 29 -17 30 -17 35 2 5 20 -23 37 -43 25 -5 -3 -10 -2 -10 4 0 6 -10 19
-22 31 -12 11 -19 20 -15 20 4 0 -12 17 -36 39 -36 33 -47 37 -78 34 -21 -3
-40 0 -43 6 -5 8 -13 8 -26 1 -16 -9 -18 -8 -13 6 5 13 2 15 -18 10 -19 -6
-21 -5 -7 4 21 13 60 9 74 -9 12 -15 38 -6 28 10 -3 5 -10 7 -15 4 -5 -4 -9
-1 -9 4 0 6 -18 11 -39 11 -25 0 -41 5 -45 15 -3 9 -12 12 -23 9 -10 -3 -3 3
15 15 38 24 41 31 10 23 -20 -5 -21 -3 -11 9 11 13 8 15 -16 11 -16 -2 -32 1
-35 7 -5 7 5 11 26 12 27 0 30 2 13 9 -18 8 -18 9 -2 9 10 1 20 7 23 15 6 17
71 19 81 3z m728 2 c4 -6 13 -8 21 -5 8 3 11 0 7 -10 -7 -19 -17 -18 -38 6
-10 11 -13 20 -7 20 6 0 14 -5 17 -11z m-1703 -21 c-7 -7 -12 -8 -12 -2 0 14
12 26 19 19 2 -3 -1 -11 -7 -17z m838 12 c0 -5 -5 -10 -11 -10 -5 0 -7 5 -4
10 3 6 8 10 11 10 2 0 4 -4 4 -10z m-1378 -17 c-6 -3 -10 -9 -6 -14 3 -5 0 -9
-5 -9 -6 0 -12 -8 -12 -17 -1 -16 -2 -16 -6 0 -5 19 26 62 36 51 3 -4 0 -9 -7
-11z m59 -10 c-8 -15 -10 -15 -11 -2 0 17 10 32 18 25 2 -3 -1 -13 -7 -23z
m1036 -3 c-1 -16 -5 -30 -9 -30 -10 0 -10 22 -2 44 9 24 13 19 11 -14z m-736
1 c-7 -5 -11 -14 -7 -20 10 -16 -12 -51 -28 -45 -8 3 -17 0 -22 -7 -4 -8 -3
-10 4 -5 18 11 14 -2 -7 -25 -11 -12 -17 -29 -14 -42 4 -20 3 -20 -9 -5 -16
18 -29 13 -46 -17 -7 -12 -12 -14 -12 -6 0 7 18 40 40 73 22 33 40 69 40 79 0
10 5 21 11 25 8 5 10 -1 5 -19 -4 -19 -2 -25 9 -23 8 1 18 6 22 11 4 4 2 5 -4
1 -7 -4 -13 -3 -13 3 0 14 31 43 38 36 4 -3 0 -10 -7 -14z m1629 9 c0 -5 -2
-10 -4 -10 -3 0 -8 5 -11 10 -3 6 -1 10 4 10 6 0 11 -4 11 -10z m1190 -2 c0
-7 -16 -11 -23 -5 -2 1 -12 -5 -22 -13 -17 -14 -17 -14 -5 7 13 20 50 28 50
11z m-3073 -30 c-3 -7 -5 -2 -5 12 0 14 2 19 5 13 2 -7 2 -19 0 -25z m363 18
c0 -8 -4 -17 -8 -20 -4 -2 -8 4 -8 15 0 10 4 19 8 19 4 0 8 -6 8 -14z m740 10
c0 -2 -7 -6 -15 -10 -8 -3 -15 -1 -15 4 0 6 7 10 15 10 8 0 15 -2 15 -4z m670
-18 c0 -6 -6 -5 -15 2 -8 7 -15 14 -15 16 0 2 7 1 15 -2 8 -4 15 -11 15 -16z
m70 1 c0 -6 -4 -7 -10 -4 -5 3 -10 11 -10 16 0 6 5 7 10 4 6 -3 10 -11 10 -16z
m384 -10 c14 -17 26 -27 26 -23 0 5 5 3 10 -2 12 -12 21 -126 9 -118 -4 2 -10
-6 -12 -18 -3 -13 -2 3 1 34 5 62 -2 80 -53 131 -15 15 -23 27 -17 27 6 0 22
-14 36 -31z m-1837 -6 c-6 -16 -18 -34 -25 -42 -7 -7 -11 -20 -8 -27 3 -7 0
-16 -5 -20 -15 -9 -7 -166 8 -182 15 -15 18 -108 4 -117 -5 -3 -13 -41 -17
-85 -3 -44 -10 -80 -13 -80 -4 0 -7 36 -7 80 1 44 3 80 6 80 3 0 6 21 7 47 1
26 7 49 13 51 7 3 5 10 -5 22 -28 31 -25 173 4 230 34 66 63 99 38 43z m-607
7 c0 -5 -5 -10 -11 -10 -5 0 -7 5 -4 10 3 6 8 10 11 10 2 0 4 -4 4 -10z m2140
-18 c0 -15 -2 -15 -10 -2 -13 20 -13 33 0 25 6 -3 10 -14 10 -23z m573 13 c-3
-9 -8 -14 -10 -11 -3 3 -2 9 2 15 9 16 15 13 8 -4z m532 -23 c-17 -15 -36 -26
-43 -24 -16 5 -5 18 30 37 39 22 44 16 13 -13z m-1760 -2 c-3 -5 -1 -10 6 -10
7 0 10 -3 6 -6 -9 -9 -28 6 -22 17 4 5 8 9 11 9 3 0 2 -4 -1 -10z m1205 6 c0
-2 -7 -7 -16 -10 -8 -3 -12 -2 -9 4 6 10 25 14 25 6z m1555 -6 c3 -6 -1 -7 -9
-4 -18 7 -21 14 -7 14 6 0 13 -4 16 -10z m-875 -10 c5 8 12 11 16 7 11 -11 2
-16 -52 -31 -27 -7 -58 -16 -69 -20 -11 -4 -5 1 13 10 17 10 32 21 32 26 0 4
7 4 17 1 12 -5 14 -3 8 8 -8 12 -6 12 9 0 15 -13 19 -13 26 -1z m-1286 -22 c9
-12 16 -27 16 -33 -1 -5 -8 3 -16 18 -8 15 -19 25 -24 22 -6 -4 -10 -1 -10 4
0 18 18 12 34 -11z m-191 -45 c21 -12 21 -13 2 -13 -14 0 -16 -3 -7 -8 7 -5
33 -7 57 -6 26 1 45 -2 45 -8 0 -6 -15 -8 -35 -6 -19 2 -35 0 -35 -5 0 -5 -6
-4 -13 2 -8 6 -16 9 -19 6 -3 -3 -11 1 -18 10 -7 8 -18 15 -26 15 -7 0 -16 5
-20 12 -5 7 -2 8 7 3 8 -5 4 3 -9 17 -30 33 -17 43 20 15 17 -12 40 -28 51
-34z m1037 40 c0 -5 -13 -17 -28 -27 l-27 -19 24 26 c26 28 31 32 31 20z m460
3 c0 -2 -18 -13 -40 -24 -22 -10 -37 -15 -34 -10 4 6 20 16 38 24 36 15 36 15
36 10z m936 -11 c10 -8 29 -15 41 -15 12 0 25 -5 28 -10 4 -7 -3 -9 -22 -4
-41 9 -83 28 -83 36 0 12 14 9 36 -7z m-1606 -10 c-7 -8 -17 -15 -23 -15 -6 0
-2 7 9 15 25 19 30 19 14 0z m-2670 -10 c0 -8 -4 -15 -10 -15 -5 0 -7 7 -4 15
4 8 8 15 10 15 2 0 4 -7 4 -15z m3131 -14 c-11 -11 -18 -27 -15 -36 4 -10 0
-15 -15 -15 -24 0 -27 -10 -8 -30 10 -12 9 -12 -4 -2 -13 10 -19 8 -32 -6 -15
-17 -17 -21 -17 -42 0 -5 -8 -10 -17 -10 -16 1 -16 2 1 15 11 8 17 15 14 15
-4 0 -13 3 -22 6 -10 4 -16 1 -16 -7 0 -8 -26 -30 -58 -49 -42 -26 -67 -34
-96 -33 -21 1 -55 -5 -75 -14 -61 -27 -101 -41 -96 -33 8 13 86 47 133 59 108
28 122 33 118 40 -3 5 3 16 14 26 12 11 18 25 15 36 -3 9 0 21 6 25 9 5 10 2
6 -10 -6 -14 -3 -16 15 -10 16 5 11 -3 -18 -30 -21 -20 -34 -36 -29 -36 6 0
30 18 54 40 24 22 49 40 57 40 13 0 21 7 67 59 16 18 31 30 34 28 2 -3 -5 -15
-16 -26z m-1382 -17 c3 -16 1 -17 -13 -5 -19 16 -21 34 -3 29 6 -3 14 -13 16
-24z m1551 11 c-7 -8 -17 -15 -22 -15 -6 0 -5 7 2 15 7 8 17 15 22 15 6 0 5
-7 -2 -15z m-595 -5 c-3 -5 -12 -10 -18 -10 -7 0 -6 4 3 10 19 12 23 12 15 0z
m118 -4 c4 -10 0 -12 -15 -8 -15 4 -17 7 -6 13 17 11 15 11 21 -5z m-2819 -11
c3 -8 3 -21 0 -29 -3 -8 -1 -23 5 -33 6 -10 11 -12 11 -5 0 6 4 12 9 12 5 0 7
-8 4 -19 -3 -10 0 -22 6 -25 5 -4 7 -14 4 -23 -4 -11 -3 -14 5 -9 8 5 10 2 6
-9 -4 -10 -2 -15 7 -13 9 2 13 -5 12 -22 -1 -14 0 -19 4 -11 4 11 10 8 25 -10
17 -20 19 -21 13 -4 -4 14 -3 17 5 9 6 -6 12 -28 15 -50 2 -21 4 -39 5 -39 1
0 3 -16 5 -34 2 -27 1 -31 -7 -17 -7 12 -13 14 -22 7 -9 -8 -13 -7 -13 4 0 8
5 11 10 8 22 -13 -6 55 -49 119 -24 37 -44 74 -44 82 0 8 -6 19 -14 23 -14 8
-29 103 -16 103 4 0 10 -7 14 -15z m452 -27 c0 -24 3 -63 7 -88 l6 -45 -14 40
c-19 55 -19 135 0 135 1 0 2 -19 1 -42z m1611 35 c-9 -9 -58 -13 -53 -5 3 5
17 10 31 10 14 0 24 -2 22 -5z m2123 -18 c14 -19 14 -19 -2 -6 -10 7 -18 18
-18 24 0 6 1 8 3 6 1 -2 9 -13 17 -24z m-3005 -5 c-10 -11 -20 -18 -23 -15 -7
6 18 35 31 35 5 0 2 -9 -8 -20z m492 -21 c14 -5 23 -12 20 -15 -2 -3 -24 4
-48 15 -24 10 -51 22 -59 25 -8 3 0 5 18 3 18 -2 33 1 33 7 1 6 3 3 6 -7 3
-10 16 -23 30 -28z m127 25 c5 -12 2 -15 -10 -10 -8 3 -18 6 -20 6 -3 0 -2 5
1 10 9 15 22 12 29 -6z m190 -5 c-6 -11 -24 -2 -24 11 0 5 7 7 15 4 8 -4 12
-10 9 -15z m601 2 c-3 -6 -11 -11 -17 -11 -6 0 -6 6 2 15 14 17 26 13 15 -4z
m1801 4 c17 -16 14 -18 -10 -9 -9 3 -16 10 -16 15 0 13 9 11 26 -6z m-1557
-11 c-8 -9 -34 -25 -59 -36 -24 -11 -48 -24 -52 -31 -4 -6 -10 -9 -13 -6 -3 4
16 24 42 45 30 24 44 32 40 21 -6 -16 -4 -16 19 2 32 25 41 27 23 5z m171 12
c0 -2 -8 -10 -17 -17 -16 -13 -17 -12 -4 4 13 16 21 21 21 13z m1446 -28 l19
-23 -25 20 c-14 11 -27 21 -29 22 -2 2 0 3 6 3 5 0 18 -10 29 -22z m-4367 -50
c1 -5 -3 -8 -8 -8 -11 0 -21 37 -13 45 6 5 20 -19 21 -37z m1536 24 c-3 -3
-11 0 -18 7 -9 10 -8 11 6 5 10 -3 15 -9 12 -12z m1306 5 c-6 -8 -8 -16 -5
-20 6 -6 -65 -57 -79 -57 -12 0 -3 25 9 25 14 1 63 29 63 38 1 4 1 12 1 17 0
6 5 10 11 10 8 0 9 -4 0 -13z m-1786 -27 c-25 -26 -27 -32 -15 -40 9 -6 10
-10 3 -10 -6 0 -19 -3 -29 -7 -13 -5 -15 -3 -9 7 5 8 4 11 -3 6 -6 -4 -9 -12
-7 -19 5 -13 -42 -40 -49 -28 -5 7 19 31 83 85 52 44 65 47 26 6z m770 20 c3
-5 2 -10 -4 -10 -5 0 -13 5 -16 10 -3 6 -2 10 4 10 5 0 13 -4 16 -10z m192
-12 c-3 -8 -6 -5 -6 6 -1 11 2 17 5 13 3 -3 4 -12 1 -19z m305 0 c-7 -7 -12
-8 -12 -2 0 14 12 26 19 19 2 -3 -1 -11 -7 -17z m-1292 8 c0 -3 -4 -8 -10 -11
-5 -3 -10 -1 -10 4 0 6 5 11 10 11 6 0 10 -2 10 -4z m1490 -11 c-14 -8 -29
-14 -35 -14 -5 0 1 6 15 14 14 8 30 14 35 14 6 0 -1 -6 -15 -14z m1885 -3 c-3
-3 -11 0 -18 7 -9 10 -8 11 6 5 10 -3 15 -9 12 -12z m-2820 -22 c3 -6 -1 -7
-9 -4 -18 7 -21 14 -7 14 6 0 13 -4 16 -10z m-1695 -10 c0 -5 -2 -10 -4 -10
-3 0 -8 5 -11 10 -3 6 -1 10 4 10 6 0 11 -4 11 -10z m138 -15 c-3 -3 -9 2 -12
12 -6 14 -5 15 5 6 7 -7 10 -15 7 -18z m1049 19 c-3 -3 -12 -4 -19 -1 -8 3 -5
6 6 6 11 1 17 -2 13 -5z m2138 -4 c-3 -5 -11 -10 -16 -10 -6 0 -7 5 -4 10 3 6
11 10 16 10 6 0 7 -4 4 -10z m-230 -10 c-3 -5 -12 -10 -18 -10 -7 0 -6 4 3 10
19 12 23 12 15 0z m-2970 -20 c3 -5 1 -10 -4 -10 -6 0 -11 5 -11 10 0 6 2 10
4 10 3 0 8 -4 11 -10z m2542 -16 c-16 -9 -31 -13 -34 -10 -3 3 5 10 18 15 37
15 47 12 16 -5z m-2626 -21 c13 -15 12 -15 -8 -4 -24 12 -29 21 -14 21 5 0 15
-7 22 -17z m129 -4 c0 -6 -4 -7 -10 -4 -5 3 -10 11 -10 16 0 6 5 7 10 4 6 -3
10 -11 10 -16z m2780 14 c-8 -4 -22 -16 -32 -27 -17 -21 -17 -21 -5 6 7 18 19
28 32 27 14 0 16 -2 5 -6z m-1875 -13 c3 5 16 10 28 9 21 0 21 -1 2 -9 -11 -4
-31 -19 -44 -34 -13 -14 -28 -23 -33 -20 -12 8 -5 -19 7 -28 6 -5 3 -8 -7 -8
-9 0 -24 -10 -32 -21 -11 -16 -21 -20 -41 -15 -16 4 -23 11 -19 18 6 9 9 9 12
0 6 -18 19 -15 41 10 24 25 18 42 -9 28 -11 -6 -21 -6 -24 -1 -6 10 23 26 39
22 6 -2 7 1 2 5 -4 4 2 18 14 30 17 18 26 21 40 14 12 -7 20 -7 24 0z m1755 0
c-8 -5 -19 -10 -25 -10 -5 0 -3 5 5 10 8 5 20 10 25 10 6 0 3 -5 -5 -10z
m-2475 -20 c-3 -4 2 -10 10 -14 8 -3 15 0 16 7 0 7 4 2 10 -11 5 -13 13 -21
19 -17 6 4 7 -1 3 -12 -4 -10 -12 -22 -20 -26 -7 -4 -13 -20 -14 -35 0 -24 -1
-25 -8 -7 -5 11 -4 25 1 33 7 8 7 12 0 12 -5 0 -12 7 -16 15 -4 13 -2 14 14 5
15 -8 18 -8 14 3 -3 8 -16 19 -30 25 -24 12 -30 23 -18 35 9 9 26 -2 19 -13z
m2430 -9 c-3 -6 -11 -11 -17 -11 -6 0 -6 6 2 15 14 17 26 13 15 -4z m75 4 c-7
-8 -19 -15 -27 -15 -13 0 -23 -7 -57 -37 -8 -7 -16 -9 -20 -6 -8 9 14 33 30
33 8 0 14 4 14 9 0 6 29 19 69 30 2 1 -2 -6 -9 -14z m-2783 -1 c-3 -3 -12 -4
-19 -1 -8 3 -5 6 6 6 11 1 17 -2 13 -5z m3358 -4 c-3 -5 -11 -10 -16 -10 -6 0
-7 5 -4 10 3 6 11 10 16 10 6 0 7 -4 4 -10z m-3225 -55 c0 -7 7 -18 15 -25 8
-7 15 -18 14 -24 0 -7 -2 -6 -6 2 -2 6 -12 12 -20 12 -11 0 -13 -5 -8 -17 5
-10 8 -27 8 -38 1 -11 6 -23 11 -27 7 -5 7 -8 -1 -8 -14 0 -45 54 -36 63 3 4
0 13 -7 22 -10 12 -10 15 4 15 13 0 16 5 10 23 -3 12 -11 24 -15 25 -5 2 -9 8
-9 14 0 6 9 3 20 -7 11 -10 20 -24 20 -30z m2534 37 c6 -10 -35 -48 -47 -44
-4 1 -18 -3 -30 -9 -19 -9 -19 -8 3 10 14 11 30 21 35 21 6 0 3 5 -5 10 -11 8
-7 9 15 4 23 -4 26 -3 15 5 -9 7 -10 11 -3 11 6 0 14 -4 17 -8z m-78 -27 c-11
-8 -24 -15 -29 -15 -4 0 -5 -5 -1 -12 4 -7 3 -8 -5 -4 -6 4 -22 -6 -37 -24
-15 -17 -33 -29 -40 -26 -16 6 -38 -19 -29 -34 3 -5 -2 -13 -12 -17 -10 -3
-29 -15 -42 -25 -35 -27 2 -24 40 3 21 15 28 26 24 40 -7 20 9 26 21 8 10 -18
-66 -89 -96 -89 -15 0 -39 -12 -56 -28 -16 -16 -47 -39 -69 -52 l-40 -23 35
37 c19 20 46 43 59 49 13 7 23 16 22 20 -1 5 18 24 43 43 24 18 54 48 66 64
13 18 28 29 36 26 7 -3 23 7 34 22 24 30 57 51 80 51 11 0 10 -3 -4 -14z m999
5 c3 -6 -1 -7 -9 -4 -18 7 -21 14 -7 14 6 0 13 -4 16 -10z m-3555 -20 c0 -5
-2 -10 -4 -10 -3 0 -8 5 -11 10 -3 6 -1 10 4 10 6 0 11 -4 11 -10z m1515 0 c8
-13 -5 -13 -25 0 -13 8 -13 10 2 10 9 0 20 -4 23 -10z m80 0 c8 -13 -5 -13
-25 0 -13 8 -13 10 2 10 9 0 20 -4 23 -10z m1675 0 c0 -5 -8 -10 -17 -10 -15
0 -16 2 -3 10 19 12 20 12 20 0z m40 -5 c0 -12 -19 -12 -23 0 -4 9 -1 12 9 8
7 -3 14 -7 14 -8z m-2983 -35 c7 -18 18 -30 30 -30 15 0 16 -2 3 -10 -22 -14
-24 -13 -39 23 -8 17 -19 35 -25 39 -7 5 -5 8 4 8 9 0 21 -13 27 -30z m783 7
c0 -15 -36 -48 -43 -40 -10 9 5 33 20 33 8 0 11 5 8 10 -3 6 -1 10 4 10 6 0
11 -6 11 -13z m2059 -5 c-14 -2 -38 -14 -54 -27 -31 -27 -29 -30 9 -15 14 5
39 7 55 4 26 -5 27 -8 17 -30 -6 -14 -20 -24 -31 -24 -19 1 -19 1 -1 11 15 9
16 13 5 20 -8 5 -17 9 -21 9 -12 0 -9 -48 3 -56 19 -12 -13 -24 -34 -12 -15 7
-22 7 -29 -3 -7 -10 -11 -11 -14 -3 -3 7 -13 10 -23 7 -10 -3 -21 -1 -24 4 -6
10 1 12 53 15 33 1 36 22 4 24 -55 2 -65 5 -59 13 3 5 -8 11 -25 13 -30 3 -30
3 -9 16 11 8 18 9 15 3 -4 -6 7 -8 31 -5 29 4 34 3 23 -5 -13 -9 -13 -11 3
-11 9 0 17 4 17 8 0 5 11 15 25 22 13 7 22 16 20 21 -7 11 16 16 45 10 l25 -6
-26 -3z m139 8 c11 0 6 -6 -12 -15 -30 -16 -58 -19 -70 -8 -9 10 36 33 52 28
8 -3 21 -5 30 -5z m-2259 -21 c-9 -18 -8 -24 6 -31 12 -7 15 -18 11 -36 l-6
-27 16 28 c8 16 18 26 22 23 8 -9 -34 -62 -47 -58 -6 1 -11 -5 -11 -13 0 -8
-5 -15 -10 -15 -7 0 -7 6 0 19 16 30 12 36 -10 16 -11 -10 -20 -13 -20 -8 0 6
6 16 14 22 8 7 12 21 9 31 -3 11 0 27 7 35 7 8 9 15 4 15 -5 0 -2 5 6 10 21
14 22 13 9 -11z m1597 12 c-6 -9 -46 -22 -46 -15 0 3 10 9 23 14 29 11 29 11
23 1z m-1810 -13 c4 -6 0 -16 -9 -23 -10 -7 -20 -26 -23 -44 -4 -17 -10 -31
-15 -31 -4 0 -11 -9 -14 -20 -3 -11 -12 -20 -19 -20 -7 0 -21 -9 -32 -21 -15
-16 -16 -22 -5 -29 11 -6 10 -9 -5 -13 -13 -3 -9 -5 11 -6 28 -2 29 -3 7 -11
-31 -13 -51 -3 -46 23 l5 22 -12 -22 c-14 -26 -39 -38 -39 -19 0 8 -7 17 -16
20 -11 4 -13 13 -8 28 3 13 10 24 14 26 5 2 20 14 36 27 15 13 33 21 41 18 9
-4 11 0 6 13 -4 12 -3 15 6 10 7 -4 10 -2 9 5 -2 7 13 22 32 35 19 13 40 28
45 33 14 13 22 13 31 -1z m1667 -23 c-15 -19 -32 -35 -36 -35 -11 0 13 42 32
57 30 23 32 13 4 -22z m542 25 c-3 -5 -12 -10 -18 -10 -7 0 -6 4 3 10 19 12
23 12 15 0z m365 0 c0 -5 -8 -10 -17 -10 -15 0 -16 2 -3 10 19 12 20 12 20 0z
m-40 -10 c0 -13 -11 -13 -30 0 -12 8 -11 10 8 10 12 0 22 -4 22 -10z m-2636
-22 c-41 -49 -64 -68 -64 -52 0 8 7 17 15 20 8 4 12 11 8 18 -3 6 -3 8 2 4 5
-5 14 1 22 12 8 11 19 20 25 20 6 0 3 -10 -8 -22z m171 12 c3 -5 1 -10 -4 -10
-6 0 -11 5 -11 10 0 6 2 10 4 10 3 0 8 -4 11 -10z m1625 -25 c-13 -14 -26 -23
-28 -20 -5 5 36 45 46 45 3 0 -5 -11 -18 -25z m750 15 c0 -4 -7 -13 -15 -20
-11 -9 -15 -9 -15 -1 0 7 -5 9 -11 6 -7 -5 -4 -14 7 -26 18 -20 15 -23 -26
-19 -14 1 -22 -1 -19 -4 3 -3 18 -7 33 -8 37 -3 51 -22 32 -41 -14 -13 -14
-16 0 -27 12 -11 13 -10 8 6 -4 10 -4 16 1 12 4 -4 14 0 23 8 12 13 13 17 2
24 -9 6 -7 11 10 20 16 9 25 9 33 1 8 -8 5 -11 -11 -11 -20 0 -21 -2 -10 -21
10 -17 10 -23 1 -26 -7 -3 -13 -9 -13 -14 0 -5 9 -4 19 3 10 6 17 18 14 25 -3
8 2 13 12 13 12 0 16 -6 12 -20 -4 -15 0 -20 15 -20 16 0 18 4 12 22 -6 20 -5
21 10 9 24 -20 21 -50 -4 -44 -26 7 -53 -4 -45 -17 5 -8 11 -8 20 0 10 8 15 6
20 -10 4 -11 11 -17 17 -14 7 4 8 2 4 -5 -4 -7 2 -20 16 -31 13 -11 17 -19 11
-20 -7 0 -13 5 -13 11 0 6 -7 8 -16 5 -8 -3 -12 -2 -9 4 3 6 1 10 -4 10 -6 0
-11 7 -11 16 0 10 -5 14 -15 10 -9 -3 -24 3 -35 14 -11 11 -20 16 -20 12 0 -5
11 -19 24 -31 17 -16 25 -19 28 -9 3 7 7 1 10 -14 l5 -27 -25 19 c-13 11 -28
17 -33 14 -5 -3 -9 -1 -9 5 0 17 -93 82 -108 76 -10 -3 -12 0 -8 10 3 9 0 15
-8 15 -8 0 -23 3 -33 6 -16 6 -15 5 2 -9 11 -8 16 -19 12 -23 -4 -5 -12 -2
-17 6 -5 8 -12 11 -16 7 -4 -4 1 -14 12 -23 19 -15 19 -16 0 -9 -19 6 -19 5
-1 -15 19 -21 45 -27 45 -9 0 5 5 7 11 4 7 -5 5 -13 -6 -25 -16 -17 -15 -19 7
-23 20 -4 19 -5 -9 -12 -18 -4 -33 -12 -33 -17 0 -7 -4 -7 -12 0 -8 5 -22 6
-33 1 l-20 -8 20 -1 c12 -1 6 -5 -15 -10 -19 -5 -41 -5 -49 0 -9 5 -24 2 -38
-7 -13 -9 -26 -13 -29 -10 -8 8 51 37 76 37 11 0 20 4 20 10 0 5 -8 7 -17 3
-15 -5 -15 -4 1 9 18 14 18 15 -8 20 -23 5 -27 2 -23 -12 3 -11 -6 -23 -25
-34 -24 -15 -32 -15 -46 -5 -14 11 -15 11 -4 -1 16 -19 15 -31 -2 -24 -8 3
-17 1 -21 -5 -3 -6 -11 -11 -17 -11 -6 0 -3 9 6 19 15 16 10 15 -30 -5 -26
-13 -59 -24 -73 -23 l-26 1 28 10 c16 6 24 14 20 21 -4 7 0 6 10 -1 12 -11 20
-11 34 -2 16 10 16 11 -4 7 -13 -3 -23 -2 -23 2 0 15 13 20 30 11 12 -7 23 -4
37 10 12 10 37 22 56 25 20 4 38 14 41 22 3 8 10 11 16 8 6 -3 7 1 4 9 -3 9
-12 16 -20 16 -8 0 -11 6 -7 17 5 12 3 14 -7 8 -9 -5 -11 -4 -6 3 10 17 61 15
77 -4 11 -14 14 -13 25 8 7 12 11 25 9 29 -2 3 11 11 30 18 19 7 34 15 33 19
-4 13 36 71 51 75 26 5 41 4 41 -3z m-2365 -20 c3 -5 -1 -10 -9 -10 -9 0 -16
5 -16 10 0 6 4 10 9 10 6 0 13 -4 16 -10z m2095 -10 c0 -5 -10 -10 -22 -10
-19 0 -20 2 -8 10 19 13 30 13 30 0z m345 1 c3 -5 1 -12 -5 -16 -5 -3 -10 1
-10 9 0 18 6 21 15 7z m31 -6 c-5 -15 10 -20 44 -15 12 2 11 -3 -4 -19 -11
-12 -30 -20 -45 -20 -24 2 -24 2 -3 6 12 2 22 9 22 14 0 6 -4 8 -9 4 -5 -3
-12 -1 -15 4 -6 10 2 41 11 41 3 0 3 -7 -1 -15z m-76 -9 c0 -19 -27 -28 -34
-11 -3 10 0 12 11 8 11 -4 14 -2 9 5 -4 7 -2 12 3 12 6 0 11 -6 11 -14z m1280
4 c0 -5 -2 -10 -4 -10 -3 0 -8 5 -11 10 -3 6 -1 10 4 10 6 0 11 -4 11 -10z
m-1640 -4 c0 -2 -7 -7 -16 -10 -8 -3 -12 -2 -9 4 6 10 25 14 25 6z m107 -2
c-3 -3 -12 -4 -19 -1 -8 3 -5 6 6 6 11 1 17 -2 13 -5z m-2909 -29 c-3 -3 -9 2
-12 12 -6 14 -5 15 5 6 7 -7 10 -15 7 -18z m2152 22 c0 -2 -10 -12 -22 -23
l-23 -19 19 23 c18 21 26 27 26 19z m665 -30 c-8 -13 -13 -26 -11 -28 3 -3 -4
-5 -14 -5 -11 0 -20 4 -20 8 0 4 4 8 9 8 5 0 13 9 16 20 3 11 13 20 21 20 12
0 12 -3 -1 -23z m48 6 c3 -5 -6 -9 -20 -10 -19 -1 -22 1 -12 8 17 11 26 11 32
2z m-1928 -13 c-3 -5 -12 -10 -18 -10 -7 0 -6 4 3 10 19 12 23 12 15 0z m1346
-13 c-10 -9 -11 -8 -5 6 3 10 9 15 12 12 3 -3 0 -11 -7 -18z m1006 8 c0 -8 -4
-12 -9 -9 -5 3 -6 10 -3 15 9 13 12 11 12 -6z m-2835 -17 c-7 -7 -12 -8 -12
-2 0 14 12 26 19 19 2 -3 -1 -11 -7 -17z m-443 -18 c11 -24 11 -24 -3 -6 -9
11 -16 24 -16 30 0 12 5 7 19 -24z m2856 3 c-24 -17 -41 -17 -26 0 6 8 8 16 5
20 -3 3 4 3 16 0 22 -6 22 -7 5 -20z m90 -3 c3 -5 1 -10 -4 -10 -6 0 -11 5
-11 10 0 6 2 10 4 10 3 0 8 -4 11 -10z m-340 -10 c-3 -5 -11 -10 -16 -10 -6 0
-7 5 -4 10 3 6 11 10 16 10 6 0 7 -4 4 -10z m-445 -15 c-7 -8 -18 -15 -24 -15
-6 0 -2 7 8 15 25 19 32 19 16 0z m-1137 -8 c7 4 6 -1 -2 -10 -14 -18 -57 -24
-46 -7 4 6 11 8 16 5 5 -4 9 2 10 12 0 11 3 13 6 5 2 -6 10 -9 16 -5z m1727 3
c0 -5 -5 -10 -11 -10 -5 0 -7 5 -4 10 3 6 8 10 11 10 2 0 4 -4 4 -10z m-2736
-40 c25 -38 36 -65 18 -44 -14 15 -54 84 -49 84 2 0 16 -18 31 -40z m2796 25
c-7 -8 -18 -15 -24 -14 -7 0 -6 2 2 6 6 2 10 9 6 14 -3 5 2 9 12 9 13 0 14 -3
4 -15z m791 -2 c13 -16 12 -17 -3 -4 -10 7 -18 15 -18 17 0 8 8 3 21 -13z
m-2543 -13 c-7 -11 -17 -20 -23 -20 -5 0 -21 -3 -35 -6 l-25 -6 23 16 c12 10
27 14 32 11 6 -3 13 1 16 9 3 9 10 16 15 16 5 0 4 -9 -3 -20z m2053 6 c5 3 17
-2 26 -11 15 -16 15 -17 -8 -14 -13 2 -30 -1 -38 -5 -11 -7 -13 -5 -8 8 4 10
7 23 8 29 0 8 2 8 6 -1 2 -6 9 -10 14 -6z m199 10 c0 -3 -4 -8 -10 -11 -5 -3
-10 -1 -10 4 0 6 5 11 10 11 6 0 10 -2 10 -4z m-1297 -21 c-3 -9 -8 -14 -10
-11 -3 3 -2 9 2 15 9 16 15 13 8 -4z m1573 -16 c9 -15 -23 -10 -35 5 -10 12
-8 13 9 9 11 -3 23 -9 26 -14z m-5301 -11 c22 -6 33 -13 25 -15 -8 -2 -40 6
-70 17 -55 20 -31 19 45 -2z m2335 1 c0 -5 10 -9 23 -9 12 -1 36 -7 52 -15 17
-8 21 -13 10 -11 -11 3 -35 8 -54 11 -32 7 -61 25 -61 39 0 3 7 3 15 0 8 -4
15 -10 15 -15z m475 -5 c-12 -23 -11 -30 3 -52 13 -21 14 -24 2 -20 -8 2 -19
17 -24 31 -8 21 -6 31 9 47 24 27 27 25 10 -6z m1702 10 c-3 -3 -12 -4 -19 -1
-8 3 -5 6 6 6 11 1 17 -2 13 -5z m739 -21 c-6 -6 -36 9 -36 18 0 5 9 4 20 -3
10 -7 18 -14 16 -15z m-2486 -3 c-8 -5 -17 -7 -19 -4 -3 3 1 9 9 14 8 5 17 7
19 4 3 -3 -1 -9 -9 -14z m1000 -5 c-13 -14 -29 -25 -35 -25 -6 0 -31 -17 -56
-37 -70 -58 -79 -62 -24 -10 27 26 62 54 78 63 15 8 27 19 27 24 0 6 8 10 17
10 14 0 12 -4 -7 -25z m-1045 5 c-3 -5 -10 -10 -16 -10 -5 0 -9 5 -9 10 0 6 7
10 16 10 8 0 12 -4 9 -10z m-2604 -14 c26 -8 61 -22 77 -30 17 -9 41 -16 54
-16 27 -1 65 -27 54 -37 -4 -5 -13 0 -20 9 -7 10 -15 16 -18 13 -5 -5 -35 3
-108 30 -25 9 -54 19 -64 21 -21 4 -46 24 -30 24 5 0 30 -7 55 -14z m4274 -6
c-10 -11 -22 -20 -27 -20 -10 0 24 38 36 39 5 1 1 -8 -9 -19z m913 1 c12 -11
22 -22 22 -26 0 -4 -6 -2 -13 4 -8 6 -17 8 -21 4 -7 -7 -26 14 -26 30 0 12 14
7 38 -12z m-53 -1 c3 -5 1 -10 -4 -10 -6 0 -11 5 -11 10 0 6 2 10 4 10 3 0 8
-4 11 -10z m-2495 -4 c0 -3 -4 -8 -10 -11 -5 -3 -10 -1 -10 4 0 6 5 11 10 11
6 0 10 -2 10 -4z m977 -37 c-26 -22 -68 -68 -93 -100 -25 -33 -49 -58 -52 -55
-3 3 2 14 11 24 27 30 20 38 -10 11 l-27 -24 23 32 c21 31 39 48 52 48 3 0 20
17 39 38 27 31 74 62 100 66 3 1 -16 -17 -43 -40z m-1267 20 c0 -6 -7 -9 -15
-5 -8 3 -15 1 -15 -5 0 -6 -5 -7 -11 -3 -8 4 -7 9 2 15 19 12 39 11 39 -2z
m555 2 c3 -6 -4 -9 -15 -8 -11 1 -20 5 -20 9 0 11 28 10 35 -1z m1712 3 c-3
-3 -12 -4 -19 -1 -8 3 -5 6 6 6 11 1 17 -2 13 -5z m-1956 -21 c-12 -23 -43
-61 -39 -48 10 29 32 65 40 65 5 0 4 -8 -1 -17z m394 -1 c-3 -3 -11 0 -18 7
-9 10 -8 11 6 5 10 -3 15 -9 12 -12z m1172 2 c-3 -3 -12 -4 -19 -1 -8 3 -5 6
6 6 11 1 17 -2 13 -5z m975 -9 c3 3 11 -2 19 -11 13 -16 12 -17 -8 -12 -13 4
-23 2 -23 -3 0 -5 10 -14 23 -19 12 -5 16 -9 10 -9 -7 -1 -13 -5 -13 -10 0 -5
10 -7 21 -4 21 6 21 5 3 -16 -10 -11 -24 -21 -30 -21 -6 0 -14 -9 -17 -20 -3
-11 -1 -20 5 -20 5 0 6 -4 3 -10 -3 -5 -11 -10 -16 -10 -6 0 -7 5 -4 10 3 6 2
10 -4 10 -12 0 7 62 23 72 6 4 7 8 2 8 -5 0 -18 -8 -29 -17 -20 -18 -20 -18
-1 15 16 27 16 34 5 41 -8 5 -11 16 -7 26 5 13 9 15 20 6 7 -6 15 -9 18 -6z
m-2857 -5 c-3 -5 -2 -10 4 -10 5 0 12 6 14 13 4 7 6 6 6 -5 1 -24 -9 -48 -21
-48 -6 0 -8 7 -4 15 3 8 1 15 -4 15 -6 0 -10 7 -10 15 0 8 5 15 11 15 5 0 7
-4 4 -10z m408 3 c-7 -2 -19 -2 -25 0 -7 3 -2 5 12 5 14 0 19 -2 13 -5z m1422
-13 c-10 -11 -21 -18 -23 -15 -3 3 3 12 14 20 27 20 30 18 9 -5z m-1255 4 c21
-5 27 -9 19 -15 -7 -4 -18 -4 -24 1 -5 4 -23 10 -40 13 -19 2 -22 5 -9 6 12 0
36 -2 54 -5z m-529 -22 c-7 -13 -6 -23 1 -30 9 -9 9 -12 1 -12 -6 0 -13 6 -16
13 -5 17 3 47 15 47 5 0 5 -8 -1 -18z m365 -17 c3 -20 4 -39 0 -42 -3 -4 -6 1
-6 10 0 9 -4 18 -9 22 -6 3 -8 -4 -6 -16 5 -23 -10 -59 -24 -59 -7 0 -8 31 -2
88 0 6 4 11 9 11 19 -3 25 2 12 11 -13 8 -13 10 2 10 12 0 19 -11 24 -35z m94
11 c0 -2 -7 -7 -16 -10 -8 -3 -12 -2 -9 4 6 10 25 14 25 6z m2305 -6 c3 -5 -1
-10 -10 -10 -9 0 -13 5 -10 10 3 6 8 10 10 10 2 0 7 -4 10 -10z m-4940 -29
c-3 -3 -10 1 -15 9 -7 11 -10 12 -10 2 0 -7 -5 -10 -11 -6 -8 4 -7 9 2 15 14
8 44 -9 34 -20z m2985 -6 c-37 -27 -40 -29 -40 -17 0 9 50 41 64 42 6 0 -5
-11 -24 -25z m-2940 -7 c0 -6 -6 -5 -15 2 -8 7 -15 14 -15 16 0 2 7 1 15 -2 8
-4 15 -11 15 -16z m44 -7 c-2 -3 -12 3 -22 13 -16 17 -16 18 5 5 12 -7 20 -15
17 -18z m2064 17 c-2 -6 -10 -14 -16 -16 -7 -2 -10 2 -6 12 7 18 28 22 22 4z
m578 -2 c18 6 18 6 0 -8 -16 -13 -22 -13 -33 -2 -17 17 -17 30 1 15 7 -6 22
-8 32 -5z m-122 -29 c13 -20 -7 -39 -31 -30 -7 3 -13 -1 -13 -8 0 -7 -2 -10
-5 -7 -12 12 7 36 26 31 10 -3 19 0 19 6 0 6 -6 11 -14 11 -8 0 -18 5 -22 11
-4 7 0 10 11 7 10 -1 23 -11 29 -21z m186 -8 c0 -5 12 -2 26 7 22 15 27 15 35
3 6 -9 9 -10 9 -2 0 7 7 10 16 6 37 -14 -24 -36 -99 -35 l-39 0 28 -14 c15 -8
33 -13 41 -10 7 3 15 0 19 -6 5 -8 -7 -9 -39 -6 -30 4 -45 2 -44 -5 1 -6 -11
-12 -27 -13 l-29 -3 22 20 c27 25 27 33 0 18 -12 -6 -24 -20 -26 -30 -3 -11
-14 -19 -25 -19 -18 0 -19 2 -7 17 13 15 12 16 -8 11 -13 -4 -23 -2 -23 3 0 8
28 13 55 10 6 0 26 14 45 32 32 29 70 38 70 16z m-130 7 c0 -2 -9 -6 -20 -9
-11 -3 -18 -1 -14 4 5 9 34 13 34 5z m-2595 -16 c3 -5 2 -10 -4 -10 -5 0 -13
5 -16 10 -3 6 -2 10 4 10 5 0 13 -4 16 -10z m2625 0 c0 -5 -4 -10 -10 -10 -5
0 -10 5 -10 10 0 6 5 10 10 10 6 0 10 -4 10 -10z m465 0 c-9 -15 -45 -32 -45
-22 0 5 10 14 23 20 29 14 29 14 22 2z m-2105 -30 c0 -5 -2 -10 -4 -10 -3 0
-8 5 -11 10 -3 6 -1 10 4 10 6 0 11 -4 11 -10z m1455 0 c3 -5 1 -10 -4 -10 -6
0 -11 5 -11 10 0 6 2 10 4 10 3 0 8 -4 11 -10z m102 -10 c-3 -13 3 -26 18 -38
21 -17 21 -19 7 -28 -20 -12 -55 -7 -47 6 3 5 12 7 20 3 19 -7 19 4 1 23 -9 9
-17 10 -21 4 -3 -5 -11 -10 -17 -10 -6 0 -4 8 5 18 10 10 17 24 17 30 0 7 5
12 11 12 6 0 9 -9 6 -20z m673 -30 c-12 -16 -26 -27 -32 -23 -8 4 -9 0 -4 -13
5 -14 4 -16 -5 -7 -12 12 -3 37 11 28 5 -3 17 8 26 25 10 16 20 28 22 25 2 -2
-6 -18 -18 -35z m-190 25 c0 -10 -44 -55 -54 -55 -6 0 -2 7 8 15 20 15 20 15
0 15 -16 1 -16 3 6 15 26 15 40 18 40 10z m-668 -37 c-7 -7 -12 -8 -12 -2 0
14 12 26 19 19 2 -3 -1 -11 -7 -17z m34 3 c-4 -5 -2 -11 2 -13 4 -1 2 -14 -5
-28 l-13 -25 2 30 c2 32 6 45 14 45 3 0 3 -4 0 -9z m3504 -26 c0 -5 -5 -3 -10
5 -5 8 -10 20 -10 25 0 6 5 3 10 -5 5 -8 10 -19 10 -25z m-3437 0 c-3 -9 -8
-14 -10 -11 -3 3 -2 9 2 15 9 16 15 13 8 -4z m252 -5 c-3 -5 -11 -10 -16 -10
-6 0 -7 5 -4 10 3 6 11 10 16 10 6 0 7 -4 4 -10z m-188 -24 c0 -8 -6 -12 -15
-9 -11 5 -11 7 0 14 7 5 13 9 14 9 0 0 1 -6 1 -14z m623 -6 c-6 -10 -16 -23
-23 -27 -6 -4 -21 -25 -31 -46 -11 -20 -21 -35 -23 -33 -3 2 9 30 26 62 16 33
30 52 31 44 0 -12 3 -11 11 3 14 24 22 22 9 -3z m2777 5 c9 -24 -1 -27 -15 -5
-8 13 -8 20 -2 20 6 0 13 -7 17 -15z m-2988 1 c-11 -9 -69 -15 -64 -6 3 6 20
10 37 10 17 0 29 -2 27 -4z m-35 -38 c-15 -13 -41 -24 -56 -26 -15 -2 -40 -10
-55 -17 -28 -15 -28 -15 -4 -15 42 0 16 -10 -50 -19 -3 -1 -18 -12 -33 -26
-29 -27 -57 -36 -37 -12 6 8 9 16 6 18 -2 3 16 13 40 24 25 10 45 21 45 25 0
10 48 30 73 30 12 0 36 9 52 20 41 27 54 25 19 -2z m1181 -8 c-3 -5 -16 -15
-28 -21 l-22 -12 20 21 c21 22 41 30 30 12z m-2225 -29 c0 -5 3 -18 6 -28 6
-16 5 -16 -9 2 -9 11 -17 15 -17 8 0 -6 -7 -10 -15 -9 -9 1 -14 6 -13 12 1 5
8 8 15 6 7 -2 13 2 13 8 0 5 5 10 10 10 6 0 10 -4 10 -9z m70 -65 c0 -22 -13
-26 -26 -8 -21 27 -18 45 6 32 11 -6 20 -17 20 -24z m210 20 c0 -2 -8 -10 -17
-17 -16 -13 -17 -12 -4 4 13 16 21 21 21 13z m2602 -53 c-2 -7 -9 -13 -14 -13
-6 0 -8 7 -4 15 3 10 -1 15 -13 15 -24 0 -32 10 -19 24 9 9 16 7 33 -9 11 -11
19 -26 17 -32z m-2702 26 c-7 -11 -14 -18 -17 -15 -3 3 0 12 7 21 18 21 23 19
10 -6z m-83 -5 c-3 -4 -1 -16 4 -27 15 -26 20 -89 8 -81 -5 3 -7 9 -4 14 9 14
-17 60 -33 60 -12 0 -12 4 3 20 10 11 20 20 23 20 3 0 2 -3 -1 -6z m51 -27
c14 4 14 3 2 -5 -16 -12 -30 -7 -29 11 0 9 2 9 5 0 3 -7 13 -9 22 -6z m82 -22
c-7 -9 -15 -13 -19 -10 -3 3 1 10 9 15 21 14 24 12 10 -5z m2625 5 c3 -5 -1
-10 -9 -10 -9 0 -16 5 -16 10 0 6 4 10 9 10 6 0 13 -4 16 -10z m-4325 -98 c0
-7 4 -11 9 -8 5 3 15 -2 22 -12 13 -15 12 -16 -3 -3 -14 10 -18 11 -18 1 0
-13 -23 14 -54 65 l-19 30 31 -30 c17 -16 32 -36 32 -43z m90 53 c11 -13 10
-14 -4 -9 -9 3 -16 10 -16 15 0 13 6 11 20 -6z m4258 -5 c12 -19 11 -20 -8 -8
-20 13 -27 28 -12 28 4 0 13 -9 20 -20z m-52 -35 c15 -25 31 -45 36 -45 4 0 5
-7 2 -15 -6 -14 -8 -13 -20 2 -12 17 -13 16 -7 -4 3 -13 12 -23 19 -23 8 0 21
-15 29 -32 8 -18 12 -23 9 -10 -3 12 -1 22 5 22 6 0 11 -15 11 -34 0 -19 3
-41 6 -50 4 -10 1 -16 -10 -16 -9 0 -13 6 -10 15 4 8 -1 17 -10 21 -9 3 -13
11 -9 17 4 6 1 7 -7 2 -8 -5 -10 -20 -7 -42 6 -37 0 -63 -14 -63 -5 0 -7 11
-3 24 3 14 -5 53 -19 95 -14 39 -20 68 -15 65 6 -4 8 -1 6 7 -3 8 -11 13 -17
12 -6 -2 -11 2 -11 7 0 6 4 10 9 10 10 0 8 34 -4 63 -13 31 2 18 31 -28z m11
3 c-3 -7 -5 -2 -5 12 0 14 2 19 5 13 2 -7 2 -19 0 -25z m-1052 2 c3 -5 1 -10
-4 -10 -6 0 -11 5 -11 10 0 6 2 10 4 10 3 0 8 -4 11 -10z m1117 -41 c-3 -30 0
-44 14 -55 17 -13 17 -13 -8 -3 -23 10 -26 16 -21 40 4 20 1 29 -8 29 -8 0 -5
6 7 15 10 8 19 15 19 15 0 0 -1 -18 -3 -41z m-1798 3 c-6 -4 -23 -26 -38 -49
-31 -51 -43 -57 -20 -10 20 38 55 79 63 71 3 -3 1 -8 -5 -12z m621 -2 c19 -21
62 -29 49 -9 -3 6 8 3 26 -6 17 -9 30 -19 27 -22 -3 -2 -15 0 -26 7 -14 7 -21
7 -21 0 0 -5 -14 -10 -32 -10 -17 0 -28 3 -25 6 12 13 -13 43 -30 37 -11 -4
-14 -3 -9 5 10 17 20 15 41 -8z m-1001 -11 c-21 -24 -73 -53 -81 -46 -2 3 5 8
16 12 12 3 21 11 21 16 0 5 6 9 14 9 7 0 19 7 26 15 7 8 15 15 18 15 3 0 -3
-9 -14 -21z m2994 -14 c-3 -3 -9 2 -12 12 -6 14 -5 15 5 6 7 -7 10 -15 7 -18z
m-1725 -2 c-7 -2 -19 -2 -25 0 -7 3 -2 5 12 5 14 0 19 -2 13 -5z m-71 -17 c7
4 8 2 4 -5 -9 -13 -26 -5 -25 12 0 9 2 8 6 -1 2 -6 10 -9 15 -6z m-100 -32
c14 -4 17 -8 8 -14 -15 -9 21 -20 68 -20 19 0 31 -4 27 -10 -3 -5 -21 -7 -39
-4 -28 4 -39 0 -63 -24 -16 -16 -27 -34 -26 -39 2 -5 -2 -15 -9 -24 -7 -8 -12
-12 -11 -10 2 2 -2 10 -9 18 -6 7 -8 16 -4 20 3 3 6 1 6 -5 0 -7 4 -12 10 -12
5 0 7 7 3 16 -4 11 1 22 12 30 10 8 14 14 9 14 -6 0 -15 -5 -22 -12 -10 -10
-17 -7 -35 11 -12 13 -17 21 -10 17 6 -3 14 -2 18 4 3 5 -6 15 -21 20 -21 8
-29 8 -36 -2 -6 -11 -8 -11 -8 0 0 7 8 16 18 19 9 4 23 14 30 22 11 14 12 14
8 -4 -5 -18 0 -20 36 -22 32 -1 38 1 25 8 -9 6 -16 18 -16 27 1 16 2 16 6 0 2
-9 14 -20 25 -24z m25 20 c-3 -3 -12 -4 -19 -1 -8 3 -5 6 6 6 11 1 17 -2 13
-5z m58 -24 c15 0 17 -2 6 -9 -15 -10 -51 7 -51 23 0 6 5 5 12 -2 7 -7 21 -12
33 -12z m620 -17 c-11 -8 -19 -19 -17 -24 1 -5 -6 -9 -15 -9 -14 0 -12 6 12
29 17 16 32 26 35 24 3 -3 -4 -11 -15 -20z m-2555 -13 c0 -5 -2 -10 -4 -10 -3
0 -8 5 -11 10 -3 6 -1 10 4 10 6 0 11 -4 11 -10z m1043 -25 c-3 -9 -8 -14 -10
-11 -3 3 -2 9 2 15 9 16 15 13 8 -4z m707 -1 c0 -2 -7 -4 -15 -4 -8 0 -15 4
-15 10 0 5 7 7 15 4 8 -4 15 -8 15 -10z m-1730 -8 c-7 -7 -13 -7 -20 0 -6 6
-3 10 10 10 13 0 16 -4 10 -10z m450 -41 c-7 -8 -18 -15 -24 -15 -6 0 -2 7 8
15 25 19 32 19 16 0z m1412 -6 c-12 -5 -22 -13 -22 -19 0 -5 -5 -10 -11 -10
-8 0 -8 5 1 15 10 12 10 15 -1 16 -8 1 -3 4 11 8 32 10 51 0 22 -10z m219 -9
c-13 -11 -31 -20 -40 -20 -9 0 -34 -14 -56 -32 -38 -30 -39 -30 -15 -4 14 16
48 39 75 51 62 29 66 29 36 5z m369 16 c0 -2 -8 -10 -17 -17 -16 -13 -17 -12
-4 4 13 16 21 21 21 13z m455 -16 c-11 -18 -15 -53 -6 -64 5 -6 7 -24 6 -41
-2 -16 1 -33 7 -37 9 -5 8 -11 -1 -21 -8 -11 -9 -17 -1 -22 8 -5 6 -15 -6 -33
-16 -25 -16 -26 -1 -13 22 18 27 12 16 -18 -7 -18 -15 -22 -34 -19 -13 3 -22
1 -19 -3 3 -5 11 -9 19 -9 8 0 17 -4 20 -10 4 -6 -3 -6 -21 0 -42 16 -46 21
-33 36 9 11 8 14 -2 14 -10 0 -10 3 -1 12 7 7 12 19 12 27 0 11 -4 10 -14 -5
-8 -11 -14 -29 -13 -39 2 -16 -6 -21 -41 -26 -51 -7 -67 6 -17 15 21 4 36 14
40 26 4 11 11 20 16 20 6 0 8 4 5 9 -3 5 6 21 20 36 14 15 23 30 19 33 -3 3
-12 -3 -19 -14 -13 -18 -14 -17 -13 8 1 14 6 26 12 25 5 -1 10 7 11 18 0 11 4
31 8 45 7 24 6 24 -8 6 -9 -11 -18 -17 -21 -14 -3 3 8 20 25 37 31 31 47 40
35 21z m-1995 -65 c-24 -25 -46 -45 -49 -45 -6 0 37 48 64 72 38 33 29 18 -15
-27z m1060 31 c0 -2 -8 -10 -17 -17 -16 -13 -17 -12 -4 4 13 16 21 21 21 13z
m80 -20 c0 -3 -4 -8 -10 -11 -5 -3 -10 -1 -10 4 0 6 5 11 10 11 6 0 10 -2 10
-4z m-2872 -48 c12 -21 17 -38 12 -38 -8 0 -40 62 -40 78 0 7 3 3 28 -40z
m2719 36 c-3 -3 -12 -4 -19 -1 -8 3 -5 6 6 6 11 1 17 -2 13 -5z m33 -4 c0 -5
-5 -10 -11 -10 -5 0 -7 5 -4 10 3 6 8 10 11 10 2 0 4 -4 4 -10z m160 -10 c0
-5 -5 -10 -11 -10 -5 0 -7 5 -4 10 3 6 8 10 11 10 2 0 4 -4 4 -10z m-3239 -17
c13 -17 13 -17 -6 -3 -11 8 -22 16 -24 17 -2 2 0 3 6 3 6 0 17 -8 24 -17z
m3356 5 c-2 -7 3 -18 12 -24 13 -10 13 -14 2 -28 -8 -9 -11 -19 -7 -23 3 -3
-1 -15 -11 -25 -16 -17 -7 -26 13 -10 5 4 0 -2 -11 -14 -17 -18 -21 -19 -26
-5 -4 10 1 22 15 33 20 17 20 18 2 18 -18 0 -18 2 5 27 17 20 18 23 3 10 -25
-21 -41 -22 -41 -3 0 8 6 12 13 9 6 -2 15 0 19 6 3 6 1 11 -6 11 -8 0 -8 4 1
15 15 18 23 19 17 3z m-307 -13 c0 -8 -7 -15 -16 -15 -14 0 -14 3 -4 15 7 8
14 15 16 15 2 0 4 -7 4 -15z m245 5 c-3 -5 -11 -10 -16 -10 -6 0 -7 5 -4 10 3
6 11 10 16 10 6 0 7 -4 4 -10z m815 0 c0 -5 -2 -10 -4 -10 -3 0 -8 5 -11 10
-3 6 -1 10 4 10 6 0 11 -4 11 -10z m-940 -34 c0 -3 -4 -8 -10 -11 -5 -3 -10
-1 -10 4 0 6 5 11 10 11 6 0 10 -2 10 -4z m80 -21 c-7 -9 -15 -13 -17 -11 -7
7 7 26 19 26 6 0 6 -6 -2 -15z m2085 -5 c3 -5 1 -10 -4 -10 -6 0 -11 5 -11 10
0 6 2 10 4 10 3 0 8 -4 11 -10z m-5275 -20 c0 -5 -2 -10 -4 -10 -3 0 -8 5 -11
10 -3 6 -1 10 4 10 6 0 11 -4 11 -10z m2990 0 c0 -5 -4 -10 -10 -10 -5 0 -10
5 -10 10 0 6 5 10 10 10 6 0 10 -4 10 -10z m-1095 -20 c-10 -11 -22 -20 -28
-20 -5 0 1 9 14 20 31 25 37 25 14 0z m1835 -2 c0 -3 -6 -9 -12 -11 -7 -3 1
-3 18 0 19 3 34 0 42 -10 20 -24 -22 -28 -65 -6 -20 10 -44 19 -53 20 -12 0
-12 2 2 7 22 9 68 9 68 0z m174 -3 c-4 -8 -11 -15 -16 -15 -6 0 -5 6 2 15 7 8
14 15 16 15 2 0 1 -7 -2 -15z m1343 -17 c-3 -8 -6 -5 -6 6 -1 11 2 17 5 13 3
-3 4 -12 1 -19z m-4290 6 c-3 -3 -12 -4 -19 -1 -8 3 -5 6 6 6 11 1 17 -2 13
-5z m2243 -15 c0 -5 -4 -9 -10 -9 -5 0 -10 7 -10 16 0 8 5 12 10 9 6 -3 10
-10 10 -16z m1737 -1 c-3 -8 -6 -5 -6 6 -1 11 2 17 5 13 3 -3 4 -12 1 -19z
m-4827 -13 c11 -13 10 -14 -4 -9 -9 3 -16 10 -16 15 0 13 6 11 20 -6z m800 -5
c0 -5 -5 -10 -11 -10 -5 0 -7 5 -4 10 3 6 8 10 11 10 2 0 4 -4 4 -10z m3147
-47 c-11 -12 -19 -13 -33 -4 -18 10 -17 10 4 11 16 0 26 7 30 23 5 19 7 20 10
3 2 -10 -3 -25 -11 -33z m-402 27 c3 -5 1 -10 -4 -10 -6 0 -11 5 -11 10 0 6 2
10 4 10 3 0 8 -4 11 -10z m-3501 -29 c-2 -3 -12 3 -22 13 -16 17 -16 18 5 5
12 -7 20 -15 17 -18z m806 21 c0 -10 -44 -32 -63 -32 -6 0 4 9 23 19 42 24 40
23 40 13z m2849 4 c-2 -3 -26 -7 -53 -11 -27 -3 -61 -8 -75 -12 -14 -3 -23 -2
-19 2 4 4 22 11 40 15 36 9 114 13 107 6z m-2789 -26 c0 -5 -7 -10 -16 -10 -8
0 -12 5 -9 10 3 6 10 10 16 10 5 0 9 -4 9 -10z m3690 -10 c0 -5 -5 -10 -11
-10 -5 0 -7 5 -4 10 3 6 8 10 11 10 2 0 4 -4 4 -10z m-4517 -25 c9 -13 13 -26
8 -30 -5 -3 -12 4 -16 15 -3 11 -11 20 -16 20 -5 0 -9 5 -9 10 0 17 14 11 33
-15z m57 -14 c14 -12 21 -21 15 -21 -5 1 -26 14 -45 31 -37 32 -12 24 30 -10z
m3789 30 c8 -5 9 -11 3 -15 -6 -3 -13 -2 -17 3 -3 6 -12 8 -20 4 -8 -3 -15 0
-15 6 0 13 29 14 49 2z m-3812 -56 c0 -8 -4 -12 -9 -9 -5 3 -6 10 -3 15 9 13
12 11 12 -6z m1908 -5 c-3 -5 -11 -10 -16 -10 -6 0 -7 5 -4 10 3 6 11 10 16
10 6 0 7 -4 4 -10z m-1835 -15 c7 -9 8 -15 2 -15 -5 0 -12 7 -16 15 -3 8 -4
15 -2 15 2 0 9 -7 16 -15z m45 -43 c-3 -3 -11 0 -18 7 -9 10 -8 11 6 5 10 -3
15 -9 12 -12z m-4 -34 c11 -21 11 -22 -4 -9 -10 7 -17 17 -17 22 0 15 9 10 21
-13z m3099 -18 c0 -5 -7 -10 -16 -10 -8 0 -12 5 -9 10 3 6 10 10 16 10 5 0 9
-4 9 -10z m-34 -35 c-3 -10 1 -15 11 -15 22 0 11 -10 -17 -15 -16 -3 -20 0
-16 11 3 9 6 20 6 25 0 5 5 9 11 9 6 0 9 -7 5 -15z m54 -25 c0 -5 -5 -10 -11
-10 -5 0 -7 5 -4 10 3 6 8 10 11 10 2 0 4 -4 4 -10z m143 -70 c3 6 4 5 3 -2
-1 -7 -18 -15 -37 -19 -34 -5 -78 -26 -90 -42 -4 -5 -14 -7 -24 -5 -12 2 7 16
51 39 45 24 73 33 81 27 7 -5 13 -5 16 2z m58 -13 c-10 -9 -11 -8 -5 6 3 10 9
15 12 12 3 -3 0 -11 -7 -18z m-40 -38 c-8 -11 -19 -19 -24 -19 -5 0 -4 7 3 15
11 14 10 14 -15 5 -24 -9 -26 -9 -16 4 7 8 25 14 40 14 27 -1 27 -2 12 -19z
m1311 -26 c-12 -5 -31 -41 -28 -53 2 -9 -67 -80 -72 -75 -3 3 7 18 21 33 15
16 27 32 27 36 0 15 41 66 53 65 8 0 7 -2 -1 -6z m-162 -159 c0 -15 -29 -39
-37 -30 -3 3 0 6 8 6 10 1 9 4 -4 11 -9 5 -23 7 -30 4 -6 -4 -4 0 6 9 22 17
57 17 57 0z m-70 -54 c-33 -23 -50 -30 -50 -23 0 5 10 13 23 19 28 15 47 17
27 4z m-228 -22 c-7 -7 -12 -8 -12 -2 0 14 12 26 19 19 2 -3 -1 -11 -7 -17z
m-936 -15 c-7 -7 -26 7 -26 19 0 6 6 6 15 -2 9 -7 13 -15 11 -17z m1034 17 c5
8 10 10 10 5 0 -6 -9 -18 -20 -28 -21 -18 -41 -15 -39 6 0 9 2 8 6 -1 7 -18
23 -4 17 16 -5 14 -4 15 5 2 10 -13 12 -13 21 0z m-66 -80 c-22 -9 -29 -6 -20
9 4 6 14 7 23 4 15 -6 14 -7 -3 -13z m-64 -14 c0 -2 -8 -10 -17 -17 -16 -13
-17 -12 -4 4 13 16 21 21 21 13z m-60 -69 c0 -2 -10 -12 -22 -23 l-23 -19 19
23 c18 21 26 27 26 19z m-910 -188 c0 -5 -4 -7 -10 -4 -5 3 -10 1 -10 -5 0 -6
-5 -8 -11 -4 -8 4 -7 9 2 15 19 12 29 11 29 -2z m85 1 c-3 -5 -13 -10 -21 -10
-8 0 -12 5 -9 10 3 6 13 10 21 10 8 0 12 -4 9 -10z m969 -5 c-4 -8 -8 -15 -10
-15 -2 0 -4 7 -4 15 0 8 4 15 10 15 5 0 7 -7 4 -15z m-74 -5 c0 -5 -2 -10 -4
-10 -3 0 -8 5 -11 10 -3 6 -1 10 4 10 6 0 11 -4 11 -10z m-911 -26 c2 -2 -16
-4 -40 -4 -31 0 -40 3 -29 10 13 8 57 4 69 -6z m1 -18 c0 -3 -4 -8 -10 -11 -5
-3 -10 -1 -10 4 0 6 5 11 10 11 6 0 10 -2 10 -4z m-43 -12 c-3 -3 -12 -4 -19
-1 -8 3 -5 6 6 6 11 1 17 -2 13 -5z m1257 -143 c-10 -10 -21 -17 -23 -15 -6 6
20 34 32 34 6 0 2 -8 -9 -19z m-74 -45 c0 -2 -8 -10 -17 -17 -16 -13 -17 -12
-4 4 13 16 21 21 21 13z m40 0 c0 -3 -4 -8 -10 -11 -5 -3 -10 -1 -10 4 0 6 5
11 10 11 6 0 10 -2 10 -4z m-126 -37 c-4 -8 0 -9 15 -4 37 11 23 -4 -21 -24
-64 -28 -77 -31 -84 -19 -4 6 -3 8 2 5 14 -8 74 23 74 39 0 8 5 14 11 14 5 0
7 -5 3 -11z m-104 -79 c-24 -15 -36 -11 -14 4 10 8 21 12 24 10 2 -3 -2 -9
-10 -14z m-285 -60 c-11 -5 -29 -9 -40 -9 -17 -1 -17 1 -5 9 8 5 26 9 40 9 23
0 23 -1 5 -9z m-75 -14 c0 -2 -8 -10 -17 -17 -16 -13 -17 -12 -4 4 13 16 21
21 21 13z m-430 -170 c0 -3 -15 -14 -32 -26 l-33 -22 30 26 c31 27 35 29 35
22z m-1361 -1169 c-2 -1 -13 -9 -24 -17 -19 -14 -19 -14 -6 3 7 9 18 17 24 17
6 0 8 -1 6 -3z m-74 -47 c-3 -5 -12 -10 -18 -10 -7 0 -6 4 3 10 19 12 23 12
15 0z m-55 -64 c0 -2 -8 -10 -17 -17 -16 -13 -17 -12 -4 4 13 16 21 21 21 13z"/>
<path d="M7610 9115 c0 -8 2 -15 4 -15 2 0 6 7 10 15 3 8 1 15 -4 15 -6 0 -10
-7 -10 -15z"/>
<path d="M7377 8886 c-4 -10 -1 -13 9 -9 15 6 19 23 5 23 -5 0 -11 -7 -14 -14z"/>
<path d="M6885 8480 c-3 -5 -2 -10 4 -10 5 0 13 5 16 10 3 6 2 10 -4 10 -5 0
-13 -4 -16 -10z"/>
<path d="M6967 8393 c-17 -16 -4 -20 35 -11 56 12 60 18 11 18 -22 0 -43 -3
-46 -7z"/>
<path d="M6805 8350 c-3 -6 1 -7 9 -4 18 7 21 14 7 14 -6 0 -13 -4 -16 -10z"/>
<path d="M6990 8345 c0 -8 4 -15 8 -15 5 0 9 7 9 15 0 8 -4 15 -9 15 -4 0 -8
-7 -8 -15z"/>
<path d="M6744 8324 c-18 -14 -18 -14 6 -3 31 14 36 19 24 19 -6 0 -19 -7 -30
-16z"/>
<path d="M5061 8206 c12 -20 23 -36 25 -36 7 0 -25 58 -36 65 -5 3 -1 -10 11
-29z"/>
<path d="M5090 8142 c-13 -14 -12 -15 2 -10 17 7 48 -19 48 -40 0 -7 7 -12 15
-12 12 0 11 5 -5 23 -10 12 -25 30 -32 39 -12 15 -14 16 -28 0z"/>
<path d="M6367 7793 c-4 -3 -7 -11 -7 -17 0 -6 5 -5 12 2 6 6 9 14 7 17 -3 3
-9 2 -12 -2z"/>
<path d="M6311 7684 c0 -11 3 -14 6 -6 3 7 2 16 -1 19 -3 4 -6 -2 -5 -13z"/>
<path d="M6295 7649 c-4 -6 -5 -12 -2 -15 2 -3 7 2 10 11 7 17 1 20 -8 4z"/>
<path d="M6267 7580 c-3 -11 -3 -20 -1 -20 2 0 8 9 14 20 6 11 7 20 2 20 -6 0
-12 -9 -15 -20z"/>
<path d="M6271 7523 c-1 -17 4 -35 9 -38 11 -7 11 9 0 45 -8 24 -8 24 -9 -7z"/>
<path d="M6251 7484 c0 -11 3 -14 6 -6 3 7 2 16 -1 19 -3 4 -6 -2 -5 -13z"/>
<path d="M6257 7453 c-4 -3 -6 -18 -6 -32 1 -25 2 -25 9 4 4 17 8 22 9 13 1
-25 17 -23 17 2 0 20 -16 27 -29 13z"/>
<path d="M6271 7374 c0 -11 3 -14 6 -6 3 7 2 16 -1 19 -3 4 -6 -2 -5 -13z"/>
<path d="M6299 7323 c-16 -4 -46 -49 -38 -58 3 -2 17 11 32 30 15 19 27 34 25
34 -2 -1 -10 -3 -19 -6z"/>
<path d="M6205 7070 c-3 -5 -2 -10 4 -10 5 0 13 5 16 10 3 6 2 10 -4 10 -5 0
-13 -4 -16 -10z"/>
<path d="M5450 7886 c0 -7 9 -21 20 -31 18 -16 20 -16 20 -2 0 10 -8 17 -17
17 -14 0 -15 2 -5 9 11 7 11 9 -2 14 -10 4 -16 1 -16 -7z"/>
<path d="M6767 7819 c-4 -16 -3 -18 9 -8 16 13 19 29 5 29 -5 0 -11 -9 -14
-21z"/>
<path d="M6574 7538 l-19 -23 25 20 c14 11 27 21 29 22 2 2 0 3 -6 3 -5 0 -18
-10 -29 -22z"/>
<path d="M7140 7740 c0 -5 5 -10 10 -10 6 0 10 5 10 10 0 6 -4 10 -10 10 -5 0
-10 -4 -10 -10z"/>
<path d="M7348 7673 c-10 -2 -18 -9 -18 -15 0 -5 -6 -8 -14 -5 -8 3 -17 -1
-20 -9 -3 -8 -1 -14 5 -14 17 0 69 30 69 40 0 6 -1 9 -2 9 -2 -1 -11 -3 -20
-6z"/>
<path d="M7480 7666 c0 -2 7 -7 16 -10 8 -3 12 -2 9 4 -6 10 -25 14 -25 6z"/>
<path d="M7520 7650 c0 -5 -25 -10 -55 -10 -34 0 -55 -4 -55 -11 0 -6 7 -9 15
-5 8 3 15 1 15 -3 0 -13 83 8 100 25 12 12 12 14 -3 14 -9 0 -17 -4 -17 -10z"/>
<path d="M7205 7540 c-13 -6 -15 -9 -5 -9 8 0 22 4 30 9 18 12 2 12 -25 0z"/>
<path d="M7227 7499 c7 -7 15 -10 18 -7 3 3 -2 9 -12 12 -14 6 -15 5 -6 -5z"/>
<path d="M7195 7480 c-3 -5 -2 -10 4 -10 5 0 13 5 16 10 3 6 2 10 -4 10 -5 0
-13 -4 -16 -10z"/>
<path d="M6942 7448 c-7 -7 -12 -9 -12 -5 0 8 -38 -27 -59 -55 -11 -15 -11
-18 3 -18 9 0 16 6 16 14 0 8 8 17 19 21 21 6 57 43 49 50 -2 3 -10 -1 -16 -7z"/>
<path d="M7085 7440 c-16 -7 -17 -9 -3 -9 9 -1 20 4 23 9 7 11 7 11 -20 0z"/>
<path d="M6980 7430 c-9 -6 -10 -10 -3 -10 6 0 15 5 18 10 8 12 4 12 -15 0z"/>
<path d="M7015 7394 c-16 -25 -16 -25 4 -14 12 6 21 17 21 25 0 21 -5 19 -25
-11z"/>
<path d="M6949 7363 c-13 -17 -13 -17 6 -3 11 8 22 16 24 17 2 2 0 3 -6 3 -6
0 -17 -8 -24 -17z"/>
<path d="M6831 7339 c-13 -11 -22 -21 -19 -24 2 -2 17 7 32 20 16 14 25 25 20
25 -5 -1 -20 -10 -33 -21z"/>
<path d="M6902 7345 c-7 -8 -9 -15 -4 -15 5 0 15 7 22 15 16 19 -1 19 -18 0z"/>
<path d="M8635 7609 c-4 -6 -5 -12 -2 -15 2 -3 7 2 10 11 7 17 1 20 -8 4z"/>
<path d="M8580 7530 c0 -5 5 -10 10 -10 6 0 10 5 10 10 0 6 -4 10 -10 10 -5 0
-10 -4 -10 -10z"/>
<path d="M8485 7480 c-4 -6 5 -10 20 -10 15 0 24 4 20 10 -3 6 -12 10 -20 10
-8 0 -17 -4 -20 -10z"/>
<path d="M7020 7670 c-8 -5 -10 -10 -5 -10 6 0 17 5 25 10 8 5 11 10 5 10 -5
0 -17 -5 -25 -10z"/>
<path d="M7688 7283 c7 -3 16 -2 19 1 4 3 -2 6 -13 5 -11 0 -14 -3 -6 -6z"/>
<path d="M7765 7238 l-20 -21 23 12 c12 7 27 9 34 5 6 -4 9 -1 6 6 -7 21 -21
20 -43 -2z"/>
<path d="M6167 6952 c-10 -11 -14 -23 -9 -26 12 -7 35 19 30 34 -2 7 -11 3
-21 -8z"/>
<path d="M6093 6884 c-14 -31 3 -29 25 4 12 18 12 22 1 22 -8 0 -19 -12 -26
-26z"/>
<path d="M7188 6893 c7 -3 16 -2 19 1 4 3 -2 6 -13 5 -11 0 -14 -3 -6 -6z"/>
<path d="M7186 6851 c-3 -4 8 -8 23 -7 16 1 27 4 24 9 -6 10 -41 9 -47 -2z"/>
<path d="M6775 6810 c-3 -5 -1 -10 4 -10 6 0 11 5 11 10 0 6 -2 10 -4 10 -3 0
-8 -4 -11 -10z"/>
<path d="M5970 6689 c0 -5 5 -7 10 -4 6 3 10 8 10 11 0 2 -4 4 -10 4 -5 0 -10
-5 -10 -11z"/>
<path d="M7285 6750 c3 -5 8 -10 11 -10 2 0 4 5 4 10 0 6 -5 10 -11 10 -5 0
-7 -4 -4 -10z"/>
<path d="M6980 6610 c0 -5 5 -10 11 -10 5 0 7 5 4 10 -3 6 -8 10 -11 10 -2 0
-4 -4 -4 -10z"/>
<path d="M7100 6604 c0 -10 3 -14 7 -11 3 4 12 2 20 -4 9 -8 13 -8 13 -1 0 6
-9 16 -20 22 -16 9 -20 8 -20 -6z"/>
<path d="M6972 6576 c7 -8 15 -12 17 -11 5 6 -10 25 -20 25 -5 0 -4 -6 3 -14z"/>
<path d="M7010 6580 c0 -5 5 -10 11 -10 5 0 7 5 4 10 -3 6 -8 10 -11 10 -2 0
-4 -4 -4 -10z"/>
<path d="M7000 6546 c0 -2 7 -9 15 -16 13 -11 14 -10 9 4 -5 14 -24 23 -24 12z"/>
<path d="M7066 6514 c18 -26 28 -27 18 -1 -3 8 -12 18 -20 21 -11 4 -11 0 2
-20z"/>
<path d="M7245 6380 c-4 -6 -4 -10 -1 -10 2 0 11 -3 20 -6 9 -3 16 -2 16 4 0
14 -28 23 -35 12z"/>
<path d="M7285 6349 c-4 -6 -3 -15 3 -21 6 -6 11 -4 15 6 7 18 -9 31 -18 15z"/>
<path d="M5962 6240 c0 -19 2 -27 5 -17 2 9 2 25 0 35 -3 9 -5 1 -5 -18z"/>
<path d="M8460 6379 c0 -5 5 -7 10 -4 6 3 10 8 10 11 0 2 -4 4 -10 4 -5 0 -10
-5 -10 -11z"/>
<path d="M6440 6240 c-6 -11 -8 -20 -6 -20 3 0 10 9 16 20 6 11 8 20 6 20 -3
0 -10 -9 -16 -20z"/>
<path d="M8780 6130 c-13 -8 -13 -10 2 -10 9 0 20 5 23 10 8 13 -5 13 -25 0z"/>
<path d="M6560 6071 c0 -17 18 -21 24 -6 3 9 0 15 -9 15 -8 0 -15 -4 -15 -9z"/>
<path d="M6310 6069 c0 -5 5 -7 10 -4 6 3 10 8 10 11 0 2 -4 4 -10 4 -5 0 -10
-5 -10 -11z"/>
<path d="M6270 6060 c0 -5 5 -10 10 -10 7 0 7 -8 -1 -22 -10 -21 -10 -22 5 -7
10 9 14 22 10 32 -7 18 -24 23 -24 7z"/>
<path d="M6172 5958 c-16 -16 -15 -25 2 -31 10 -4 13 2 12 19 0 13 -1 24 -1
24 -1 0 -6 -5 -13 -12z"/>
<path d="M6205 5960 c3 -5 10 -10 16 -10 5 0 9 5 9 10 0 6 -7 10 -16 10 -8 0
-12 -4 -9 -10z"/>
<path d="M8620 5900 c0 -5 5 -10 10 -10 6 0 10 5 10 10 0 6 -4 10 -10 10 -5 0
-10 -4 -10 -10z"/>
<path d="M8525 5850 c-3 -5 -2 -10 4 -10 5 0 13 5 16 10 3 6 2 10 -4 10 -5 0
-13 -4 -16 -10z"/>
<path d="M7597 5713 c-4 -3 -7 -11 -7 -17 0 -6 5 -5 12 2 6 6 9 14 7 17 -3 3
-9 2 -12 -2z"/>
<path d="M8011 5101 c-9 -6 -4 -10 18 -13 34 -5 51 6 25 16 -20 8 -26 7 -43
-3z"/>
</g>
</svg>
